G04 #@! TF.FileFunction,Copper,L1,Top,Signal*
%FSLAX46Y46*%
G04 Gerber Fmt 4.6, Leading zero omitted, Abs format (unit mm)*
G04 Created by KiCad (PCBNEW 4.0.6) date Monday, August 21, 2017 'PMt' 07:13:58 PM*
%MOMM*%
%LPD*%
G01*
G04 APERTURE LIST*
%ADD10C,0.100000*%
%ADD11R,1.600000X0.550000*%
%ADD12R,0.550000X1.600000*%
%ADD13R,0.500000X0.900000*%
%ADD14R,1.700000X1.700000*%
%ADD15O,1.700000X1.700000*%
%ADD16R,1.727200X1.727200*%
%ADD17O,1.727200X1.727200*%
%ADD18R,1.300000X1.550000*%
%ADD19R,0.800000X0.750000*%
%ADD20R,0.750000X0.800000*%
%ADD21R,0.797560X0.797560*%
%ADD22R,0.900000X0.500000*%
%ADD23R,1.550000X0.600000*%
%ADD24R,1.800000X1.200000*%
%ADD25R,0.800000X0.800000*%
%ADD26R,1.950000X0.600000*%
%ADD27C,4.400000*%
%ADD28C,0.700000*%
%ADD29C,0.250000*%
G04 APERTURE END LIST*
D10*
D11*
X163517000Y-91688000D03*
X163517000Y-92488000D03*
X163517000Y-93288000D03*
X163517000Y-94088000D03*
X163517000Y-94888000D03*
X163517000Y-95688000D03*
X163517000Y-96488000D03*
X163517000Y-97288000D03*
D12*
X164967000Y-98738000D03*
X165767000Y-98738000D03*
X166567000Y-98738000D03*
X167367000Y-98738000D03*
X168167000Y-98738000D03*
X168967000Y-98738000D03*
X169767000Y-98738000D03*
X170567000Y-98738000D03*
D11*
X172017000Y-97288000D03*
X172017000Y-96488000D03*
X172017000Y-95688000D03*
X172017000Y-94888000D03*
X172017000Y-94088000D03*
X172017000Y-93288000D03*
X172017000Y-92488000D03*
X172017000Y-91688000D03*
D12*
X170567000Y-90238000D03*
X169767000Y-90238000D03*
X168967000Y-90238000D03*
X168167000Y-90238000D03*
X167367000Y-90238000D03*
X166567000Y-90238000D03*
X165767000Y-90238000D03*
X164967000Y-90238000D03*
D13*
X170700000Y-72390000D03*
X172200000Y-72390000D03*
D14*
X155702000Y-123698000D03*
D15*
X155702000Y-126238000D03*
X158242000Y-123698000D03*
X158242000Y-126238000D03*
X160782000Y-123698000D03*
X160782000Y-126238000D03*
X163322000Y-123698000D03*
X163322000Y-126238000D03*
X165862000Y-123698000D03*
X165862000Y-126238000D03*
X168402000Y-123698000D03*
X168402000Y-126238000D03*
X170942000Y-123698000D03*
X170942000Y-126238000D03*
X173482000Y-123698000D03*
X173482000Y-126238000D03*
X176022000Y-123698000D03*
X176022000Y-126238000D03*
X178562000Y-123698000D03*
X178562000Y-126238000D03*
D14*
X155702000Y-58293000D03*
D15*
X155702000Y-60833000D03*
X158242000Y-58293000D03*
X158242000Y-60833000D03*
X160782000Y-58293000D03*
X160782000Y-60833000D03*
X163322000Y-58293000D03*
X163322000Y-60833000D03*
X165862000Y-58293000D03*
X165862000Y-60833000D03*
X168402000Y-58293000D03*
X168402000Y-60833000D03*
X170942000Y-58293000D03*
X170942000Y-60833000D03*
X173482000Y-58293000D03*
X173482000Y-60833000D03*
X176022000Y-58293000D03*
X176022000Y-60833000D03*
X178562000Y-58293000D03*
X178562000Y-60833000D03*
D16*
X189357000Y-96393000D03*
D17*
X186817000Y-96393000D03*
X189357000Y-93853000D03*
X186817000Y-93853000D03*
X189357000Y-91313000D03*
X186817000Y-91313000D03*
D18*
X185837000Y-81318000D03*
X185837000Y-73368000D03*
X190337000Y-81318000D03*
X190337000Y-73368000D03*
D14*
X186817000Y-117983000D03*
D15*
X189357000Y-117983000D03*
X186817000Y-115443000D03*
X189357000Y-115443000D03*
X186817000Y-112903000D03*
X189357000Y-112903000D03*
X186817000Y-110363000D03*
X189357000Y-110363000D03*
D19*
X176737000Y-95858000D03*
X175237000Y-95858000D03*
D20*
X160782000Y-95873000D03*
X160782000Y-94373000D03*
D19*
X176137000Y-93853000D03*
X174637000Y-93853000D03*
D20*
X163957000Y-76823000D03*
X163957000Y-75323000D03*
X161417000Y-104533000D03*
X161417000Y-106033000D03*
X170307000Y-106033000D03*
X170307000Y-104533000D03*
D21*
X189242700Y-67818000D03*
X190741300Y-67818000D03*
D14*
X118872000Y-58293000D03*
D15*
X118872000Y-60833000D03*
X121412000Y-58293000D03*
X121412000Y-60833000D03*
X123952000Y-58293000D03*
X123952000Y-60833000D03*
X126492000Y-58293000D03*
X126492000Y-60833000D03*
X129032000Y-58293000D03*
X129032000Y-60833000D03*
X131572000Y-58293000D03*
X131572000Y-60833000D03*
X134112000Y-58293000D03*
X134112000Y-60833000D03*
X136652000Y-58293000D03*
X136652000Y-60833000D03*
D13*
X169787000Y-80518000D03*
X168287000Y-80518000D03*
X162457000Y-88138000D03*
X163957000Y-88138000D03*
X185432000Y-67818000D03*
X186932000Y-67818000D03*
D22*
X189357000Y-123178000D03*
X189357000Y-121678000D03*
D23*
X166337000Y-74168000D03*
X166337000Y-75438000D03*
X166337000Y-76708000D03*
X166337000Y-77978000D03*
X171737000Y-77978000D03*
X171737000Y-76708000D03*
X171737000Y-75438000D03*
X171737000Y-74168000D03*
D24*
X163862000Y-106483000D03*
X167862000Y-106483000D03*
X167862000Y-104083000D03*
X163862000Y-104083000D03*
D20*
X135900000Y-106750000D03*
X135900000Y-108250000D03*
X119900000Y-92850000D03*
X119900000Y-91350000D03*
D25*
X189200000Y-65000000D03*
X190800000Y-65000000D03*
X189200000Y-62000000D03*
X190800000Y-62000000D03*
X189200000Y-59000000D03*
X190800000Y-59000000D03*
D26*
X124281200Y-87503000D03*
X124281200Y-88773000D03*
X124281200Y-90043000D03*
X124281200Y-91313000D03*
X124281200Y-92583000D03*
X124281200Y-93853000D03*
X124281200Y-95123000D03*
X124281200Y-96393000D03*
X124281200Y-97663000D03*
X124281200Y-98933000D03*
X133681200Y-98933000D03*
X133681200Y-97663000D03*
X133681200Y-96393000D03*
X133681200Y-95123000D03*
X133681200Y-93853000D03*
X133681200Y-92583000D03*
X133681200Y-91313000D03*
X133681200Y-90043000D03*
X133681200Y-88773000D03*
X133681200Y-87503000D03*
D13*
X185500000Y-65000000D03*
X187000000Y-65000000D03*
X185500000Y-62000000D03*
X187000000Y-62000000D03*
X185500000Y-59000000D03*
X187000000Y-59000000D03*
D23*
X126711400Y-108385800D03*
X126711400Y-109655800D03*
X126711400Y-110925800D03*
X126711400Y-112195800D03*
X132111400Y-112195800D03*
X132111400Y-110925800D03*
X132111400Y-109655800D03*
X132111400Y-108385800D03*
D27*
X192000000Y-54300000D03*
X192000000Y-129700000D03*
X106000000Y-129700000D03*
X106000000Y-54300000D03*
D28*
X192300000Y-58900000D03*
X192600000Y-62000000D03*
X192500000Y-65000000D03*
X137400000Y-106400000D03*
X126500000Y-113300000D03*
X122000000Y-88700000D03*
X156900000Y-54800000D03*
X134800000Y-100600000D03*
X123300000Y-100900000D03*
X118600000Y-93300000D03*
X169672000Y-72263000D03*
X162687000Y-75438000D03*
X159512000Y-95758000D03*
X173482000Y-95013000D03*
X177892000Y-95858000D03*
X177292000Y-93853000D03*
X192532000Y-67818000D03*
X189992000Y-77343000D03*
X160147000Y-104648000D03*
X171577000Y-106553000D03*
X120300000Y-89480000D03*
X124600000Y-110900000D03*
X137500000Y-108200000D03*
X153000000Y-57200000D03*
X161417000Y-88138000D03*
X162687000Y-76708000D03*
X159512000Y-94488000D03*
X175987000Y-97128000D03*
X175387000Y-92583000D03*
X183642000Y-67818000D03*
X174382003Y-89408000D03*
X174117000Y-92583000D03*
X171577000Y-100203000D03*
X168100000Y-96900000D03*
X169037000Y-95123000D03*
X170307000Y-97028000D03*
X192000000Y-116600000D03*
X168500000Y-91700000D03*
X184100000Y-59000000D03*
X181200000Y-87900000D03*
X183600000Y-91000000D03*
X169074278Y-92625652D03*
X181000000Y-92800000D03*
X181200000Y-89100000D03*
X184100000Y-62200000D03*
X168779591Y-93476042D03*
X184912000Y-110363000D03*
X170942000Y-102743000D03*
X165186999Y-79248000D03*
X165227000Y-95123000D03*
X136600000Y-102200000D03*
X136900000Y-84100000D03*
X136800000Y-88500000D03*
X122400000Y-63100000D03*
X167132000Y-95758000D03*
X165862000Y-72898000D03*
X165862000Y-93853000D03*
X141900000Y-91400000D03*
X142000000Y-84200000D03*
X125000000Y-63100000D03*
X166497000Y-97028000D03*
X138240000Y-87520000D03*
X139300000Y-107800000D03*
X139600000Y-90100000D03*
X139600000Y-84200000D03*
X128100000Y-62800000D03*
X168500000Y-88100000D03*
X176023397Y-73534397D03*
X175387000Y-72898000D03*
X173482000Y-89408000D03*
X173482000Y-72898000D03*
X163800000Y-86700000D03*
X163800000Y-82900000D03*
X132600000Y-62600000D03*
X139300000Y-66400000D03*
X146700000Y-84200000D03*
X146700000Y-91300000D03*
D29*
X190800000Y-59000000D02*
X192200000Y-59000000D01*
X192200000Y-59000000D02*
X192300000Y-58900000D01*
X190800000Y-62000000D02*
X192600000Y-62000000D01*
X190800000Y-65000000D02*
X192500000Y-65000000D01*
X135900000Y-106750000D02*
X137050000Y-106750000D01*
X137050000Y-106750000D02*
X137400000Y-106400000D01*
X126711400Y-112195800D02*
X126711400Y-113088600D01*
X126711400Y-113088600D02*
X126500000Y-113300000D01*
X124281200Y-88773000D02*
X122073000Y-88773000D01*
X122073000Y-88773000D02*
X122000000Y-88700000D01*
X158242000Y-58293000D02*
X158242000Y-56142000D01*
X158242000Y-56142000D02*
X156900000Y-54800000D01*
X133681200Y-98933000D02*
X133681200Y-99481200D01*
X133681200Y-99481200D02*
X134800000Y-100600000D01*
X133681200Y-92583000D02*
X133681200Y-93853000D01*
X133681200Y-93853000D02*
X133681200Y-95123000D01*
X133681200Y-95123000D02*
X133681200Y-96393000D01*
X133681200Y-96393000D02*
X133681200Y-97663000D01*
X133681200Y-97663000D02*
X133681200Y-98933000D01*
X124281200Y-98933000D02*
X124281200Y-99918800D01*
X124281200Y-99918800D02*
X123300000Y-100900000D01*
X124281200Y-97663000D02*
X124281200Y-98933000D01*
X124281200Y-95123000D02*
X124281200Y-96393000D01*
X124281200Y-96393000D02*
X124281200Y-97663000D01*
X119900000Y-92850000D02*
X119050000Y-92850000D01*
X119050000Y-92850000D02*
X118600000Y-93300000D01*
X170700000Y-72390000D02*
X169799000Y-72390000D01*
X169799000Y-72390000D02*
X169672000Y-72263000D01*
X163957000Y-75323000D02*
X162802000Y-75323000D01*
X162802000Y-75323000D02*
X162687000Y-75438000D01*
X166337000Y-75438000D02*
X164072000Y-75438000D01*
X164072000Y-75438000D02*
X163957000Y-75323000D01*
X160782000Y-95873000D02*
X159627000Y-95873000D01*
X159627000Y-95873000D02*
X159512000Y-95758000D01*
X163517000Y-94888000D02*
X161742000Y-94888000D01*
X161742000Y-94888000D02*
X160782000Y-95848000D01*
X160782000Y-95848000D02*
X160782000Y-95873000D01*
X172017000Y-94888000D02*
X173357000Y-94888000D01*
X173357000Y-94888000D02*
X173482000Y-95013000D01*
X176737000Y-95858000D02*
X177892000Y-95858000D01*
X176137000Y-93853000D02*
X177292000Y-93853000D01*
X190741300Y-67818000D02*
X192532000Y-67818000D01*
X190337000Y-81318000D02*
X190337000Y-77688000D01*
X190337000Y-77688000D02*
X189992000Y-77343000D01*
X190337000Y-73368000D02*
X190337000Y-76998000D01*
X190337000Y-76998000D02*
X189992000Y-77343000D01*
X161417000Y-104533000D02*
X160262000Y-104533000D01*
X160262000Y-104533000D02*
X160147000Y-104648000D01*
X163862000Y-104083000D02*
X161867000Y-104083000D01*
X161867000Y-104083000D02*
X161417000Y-104533000D01*
X170307000Y-106033000D02*
X171057000Y-106033000D01*
X171057000Y-106033000D02*
X171577000Y-106553000D01*
X167862000Y-106483000D02*
X169857000Y-106483000D01*
X169857000Y-106483000D02*
X170307000Y-106033000D01*
X121540000Y-89920000D02*
X120740000Y-89920000D01*
X120740000Y-89920000D02*
X120300000Y-89480000D01*
X121540000Y-91313000D02*
X119937000Y-91313000D01*
X124281200Y-91313000D02*
X121540000Y-91313000D01*
X121540000Y-91313000D02*
X121540000Y-89920000D01*
X121540000Y-89920000D02*
X121550000Y-89910000D01*
X126711400Y-110925800D02*
X124625800Y-110925800D01*
X124625800Y-110925800D02*
X124600000Y-110900000D01*
X135900000Y-108250000D02*
X137450000Y-108250000D01*
X137450000Y-108250000D02*
X137500000Y-108200000D01*
X132111400Y-109655800D02*
X134494200Y-109655800D01*
X134494200Y-109655800D02*
X135900000Y-108250000D01*
X132111400Y-108385800D02*
X132111400Y-109655800D01*
X153000000Y-57200000D02*
X152900000Y-57300000D01*
X119937000Y-91313000D02*
X119900000Y-91350000D01*
X162457000Y-88138000D02*
X161417000Y-88138000D01*
X163957000Y-76823000D02*
X162802000Y-76823000D01*
X162802000Y-76823000D02*
X162687000Y-76708000D01*
X166337000Y-76708000D02*
X164072000Y-76708000D01*
X164072000Y-76708000D02*
X163957000Y-76823000D01*
X160782000Y-94373000D02*
X159627000Y-94373000D01*
X159627000Y-94373000D02*
X159512000Y-94488000D01*
X163517000Y-94088000D02*
X161067000Y-94088000D01*
X161067000Y-94088000D02*
X160782000Y-94373000D01*
X175237000Y-95858000D02*
X175237000Y-96378000D01*
X175237000Y-96378000D02*
X175987000Y-97128000D01*
X174637000Y-93853000D02*
X174637000Y-93333000D01*
X174637000Y-93333000D02*
X175387000Y-92583000D01*
X172617000Y-95788000D02*
X175167000Y-95788000D01*
X175167000Y-95788000D02*
X175237000Y-95858000D01*
X172017000Y-94088000D02*
X174402000Y-94088000D01*
X174402000Y-94088000D02*
X174637000Y-93853000D01*
X185432000Y-67818000D02*
X183642000Y-67818000D01*
X163862000Y-106483000D02*
X161867000Y-106483000D01*
X161867000Y-106483000D02*
X161417000Y-106033000D01*
X165767000Y-98738000D02*
X165767000Y-104878000D01*
X165767000Y-104878000D02*
X164162000Y-106483000D01*
X164162000Y-106483000D02*
X163862000Y-106483000D01*
X167862000Y-104083000D02*
X169857000Y-104083000D01*
X169857000Y-104083000D02*
X170307000Y-104533000D01*
X166567000Y-98738000D02*
X166567000Y-103088000D01*
X166567000Y-103088000D02*
X167562000Y-104083000D01*
X167562000Y-104083000D02*
X167862000Y-104083000D01*
X186932000Y-67818000D02*
X189242700Y-67818000D01*
X174117000Y-92583000D02*
X174466999Y-92233001D01*
X174466999Y-92233001D02*
X174466999Y-89492996D01*
X174466999Y-89492996D02*
X174382003Y-89408000D01*
X170567000Y-98738000D02*
X170567000Y-99193000D01*
X170567000Y-99193000D02*
X171577000Y-100203000D01*
X170967000Y-93288000D02*
X170891999Y-93363001D01*
X170891999Y-93363001D02*
X170891999Y-94498001D01*
X170891999Y-94498001D02*
X168100000Y-96900000D01*
X172017000Y-93288000D02*
X170967000Y-93288000D01*
X170567000Y-92958000D02*
X169037000Y-94488000D01*
X169037000Y-94488000D02*
X169037000Y-95123000D01*
X170567000Y-91688000D02*
X170567000Y-92958000D01*
X170567000Y-90238000D02*
X170567000Y-91688000D01*
X172017000Y-96488000D02*
X170847000Y-96488000D01*
X170847000Y-96488000D02*
X170307000Y-97028000D01*
X189357000Y-115443000D02*
X188556002Y-115443000D01*
X186817000Y-117983000D02*
X186817000Y-116883000D01*
X186817000Y-116883000D02*
X186987000Y-116713000D01*
X186987000Y-116713000D02*
X192000000Y-116600000D01*
X165767000Y-90238000D02*
X165767000Y-91288000D01*
X165767000Y-91288000D02*
X166427000Y-91948000D01*
X166427000Y-91948000D02*
X168500000Y-91700000D01*
X163957000Y-88138000D02*
X164717000Y-88138000D01*
X164717000Y-88138000D02*
X165767000Y-89188000D01*
X165767000Y-89188000D02*
X165767000Y-90238000D01*
X185837000Y-81318000D02*
X185837000Y-73368000D01*
X189357000Y-91313000D02*
X189357000Y-83938000D01*
X189357000Y-83938000D02*
X186737000Y-81318000D01*
X186737000Y-81318000D02*
X185837000Y-81318000D01*
X181200000Y-87900000D02*
X183600000Y-90300000D01*
X183600000Y-90300000D02*
X183600000Y-91000000D01*
X185500000Y-59000000D02*
X184100000Y-59000000D01*
X163517000Y-91688000D02*
X165530590Y-91688000D01*
X165530590Y-91688000D02*
X166465591Y-92623001D01*
X166465591Y-92623001D02*
X169071627Y-92623001D01*
X169071627Y-92623001D02*
X169074278Y-92625652D01*
X185500000Y-62000000D02*
X184300000Y-62000000D01*
X181000000Y-89300000D02*
X181000000Y-92800000D01*
X181200000Y-89100000D02*
X181000000Y-89300000D01*
X184300000Y-62000000D02*
X184100000Y-62200000D01*
X165694180Y-92488000D02*
X166279191Y-93073011D01*
X166279191Y-93073011D02*
X168376560Y-93073011D01*
X168376560Y-93073011D02*
X168779591Y-93476042D01*
X163517000Y-92488000D02*
X165694180Y-92488000D01*
X184912000Y-110363000D02*
X184912000Y-112588000D01*
X176844000Y-129600000D02*
X173482000Y-126238000D01*
X179900000Y-129600000D02*
X176844000Y-129600000D01*
X182300000Y-127200000D02*
X179900000Y-129600000D01*
X182300000Y-115200000D02*
X182300000Y-127200000D01*
X184912000Y-112588000D02*
X182300000Y-115200000D01*
X167367000Y-98738000D02*
X167367000Y-102343000D01*
X167367000Y-102343000D02*
X167767000Y-102743000D01*
X167767000Y-102743000D02*
X170322000Y-102743000D01*
X170322000Y-102743000D02*
X170942000Y-102743000D01*
X184912000Y-110363000D02*
X186817000Y-110363000D01*
X165186999Y-79248000D02*
X165186999Y-79128001D01*
X165186999Y-79128001D02*
X166337000Y-77978000D01*
X163517000Y-95688000D02*
X164662000Y-95688000D01*
X164662000Y-95688000D02*
X165227000Y-95123000D01*
X166497000Y-78138000D02*
X166337000Y-77978000D01*
X126711400Y-109655800D02*
X123055800Y-109655800D01*
X126200000Y-102200000D02*
X136600000Y-102200000D01*
X122300000Y-106100000D02*
X126200000Y-102200000D01*
X122300000Y-108900000D02*
X122300000Y-106100000D01*
X123055800Y-109655800D02*
X122300000Y-108900000D01*
X136900000Y-84100000D02*
X136900000Y-77600000D01*
X136750000Y-88550000D02*
X136800000Y-88500000D01*
X136527000Y-88773000D02*
X136750000Y-88550000D01*
X133681200Y-88773000D02*
X136527000Y-88773000D01*
X136900000Y-77600000D02*
X122400000Y-63100000D01*
X163517000Y-97288000D02*
X164730590Y-97288000D01*
X164730590Y-97288000D02*
X166260590Y-95758000D01*
X166260590Y-95758000D02*
X167132000Y-95758000D01*
X165862000Y-72898000D02*
X165862000Y-73693000D01*
X165862000Y-73693000D02*
X166337000Y-74168000D01*
X163517000Y-96488000D02*
X164861002Y-96488000D01*
X164861002Y-96488000D02*
X165902001Y-95447001D01*
X165902001Y-95447001D02*
X165902001Y-93893001D01*
X165902001Y-93893001D02*
X165862000Y-93853000D01*
X132111400Y-112195800D02*
X136704200Y-112195800D01*
X141900000Y-107000000D02*
X141900000Y-91400000D01*
X136704200Y-112195800D02*
X141900000Y-107000000D01*
X126300000Y-62100000D02*
X126000000Y-62100000D01*
X142000000Y-73400000D02*
X130700000Y-62100000D01*
X130700000Y-62100000D02*
X126300000Y-62100000D01*
X133681200Y-91313000D02*
X141813000Y-91313000D01*
X141813000Y-91313000D02*
X141900000Y-91400000D01*
X142000000Y-84200000D02*
X142000000Y-73600000D01*
X142000000Y-73600000D02*
X142000000Y-73400000D01*
X126000000Y-62100000D02*
X125000000Y-63100000D01*
X164967000Y-98738000D02*
X164967000Y-97688000D01*
X164967000Y-97688000D02*
X165627000Y-97028000D01*
X165627000Y-97028000D02*
X166497000Y-97028000D01*
X133681200Y-87503000D02*
X138223000Y-87503000D01*
X138223000Y-87503000D02*
X138240000Y-87520000D01*
X132111400Y-110925800D02*
X136174200Y-110925800D01*
X136174200Y-110925800D02*
X139300000Y-107800000D01*
X139600000Y-84200000D02*
X139600000Y-74200000D01*
X139543000Y-90043000D02*
X139600000Y-90100000D01*
X133681200Y-90043000D02*
X139543000Y-90043000D01*
X139600000Y-74200000D02*
X128100000Y-62800000D01*
X168167000Y-90238000D02*
X168167000Y-89088001D01*
X168167000Y-89088001D02*
X168500000Y-88100000D01*
X174645254Y-74824746D02*
X174733048Y-74824746D01*
X174733048Y-74824746D02*
X176023397Y-73534397D01*
X171737000Y-76708000D02*
X172762000Y-76708000D01*
X172762000Y-76708000D02*
X174645254Y-74824746D01*
X171737000Y-76708000D02*
X172212000Y-76708000D01*
X171737000Y-76708000D02*
X171262000Y-76708000D01*
X171262000Y-76708000D02*
X169787000Y-78183000D01*
X169787000Y-78183000D02*
X169787000Y-79818000D01*
X169787000Y-79818000D02*
X169787000Y-80518000D01*
X175387000Y-72898000D02*
X174157000Y-74128000D01*
X174157000Y-74128000D02*
X174157000Y-74168000D01*
X173482000Y-74803000D02*
X173522000Y-74803000D01*
X173522000Y-74803000D02*
X174157000Y-74168000D01*
X171737000Y-75438000D02*
X172847000Y-75438000D01*
X172847000Y-75438000D02*
X173482000Y-74803000D01*
X171737000Y-75438000D02*
X172212000Y-75438000D01*
X171737000Y-75438000D02*
X171262000Y-75438000D01*
X171262000Y-75438000D02*
X168287000Y-78413000D01*
X168287000Y-78413000D02*
X168287000Y-79818000D01*
X168287000Y-79818000D02*
X168287000Y-80518000D01*
X189357000Y-123178000D02*
X189357000Y-123343000D01*
X189357000Y-123343000D02*
X181100000Y-131600000D01*
X181100000Y-131600000D02*
X176304000Y-131600000D01*
X176304000Y-131600000D02*
X170942000Y-126238000D01*
X189357000Y-121158000D02*
X189357000Y-121678000D01*
X189357000Y-121043000D02*
X189357000Y-117983000D01*
X172017000Y-92488000D02*
X173067000Y-92488000D01*
X173067000Y-92488000D02*
X173482000Y-92073000D01*
X173482000Y-92073000D02*
X173482000Y-89408000D01*
X172708000Y-72898000D02*
X172457000Y-72898000D01*
X172457000Y-72898000D02*
X171737000Y-73618000D01*
X171737000Y-73618000D02*
X171737000Y-74168000D01*
X173482000Y-72898000D02*
X172708000Y-72898000D01*
X172708000Y-72898000D02*
X172200000Y-72390000D01*
X187000000Y-65000000D02*
X189200000Y-65000000D01*
X187000000Y-62000000D02*
X189200000Y-62000000D01*
X187000000Y-59000000D02*
X189200000Y-59000000D01*
X124900000Y-86100000D02*
X124900000Y-71400000D01*
X127799000Y-59600000D02*
X129032000Y-60833000D01*
X120400000Y-59600000D02*
X127799000Y-59600000D01*
X120100000Y-59900000D02*
X120400000Y-59600000D01*
X120100000Y-66600000D02*
X120100000Y-59900000D01*
X124900000Y-71400000D02*
X120100000Y-66600000D01*
X124281200Y-87503000D02*
X124281200Y-86718800D01*
X125000000Y-86000000D02*
X126300000Y-86000000D01*
X124281200Y-86718800D02*
X124900000Y-86100000D01*
X124900000Y-86100000D02*
X125000000Y-86000000D01*
X169000000Y-90205000D02*
X169000000Y-88900000D01*
X169400000Y-88500000D02*
X169000000Y-88900000D01*
X169000000Y-86700000D02*
X169000000Y-87600000D01*
X126162400Y-86000000D02*
X126300000Y-86000000D01*
X126300000Y-86000000D02*
X168300000Y-86000000D01*
X168300000Y-86000000D02*
X169000000Y-86700000D01*
X169000000Y-87600000D02*
X169400000Y-88000000D01*
X169400000Y-88000000D02*
X169400000Y-88500000D01*
X169000000Y-90205000D02*
X168967000Y-90238000D01*
X175600000Y-82300000D02*
X175600000Y-76500000D01*
X167367000Y-87667000D02*
X166400000Y-86700000D01*
X166400000Y-86700000D02*
X163800000Y-86700000D01*
X163800000Y-82900000D02*
X164400000Y-82300000D01*
X164400000Y-82300000D02*
X175600000Y-82300000D01*
X167367000Y-90238000D02*
X167367000Y-87667000D01*
X182800000Y-65000000D02*
X185500000Y-65000000D01*
X181700000Y-66100000D02*
X182800000Y-65000000D01*
X181700000Y-70400000D02*
X181700000Y-66100000D01*
X175600000Y-76500000D02*
X181700000Y-70400000D01*
X135500000Y-62600000D02*
X132600000Y-62600000D01*
X139300000Y-66400000D02*
X135500000Y-62600000D01*
X130800000Y-116300000D02*
X136700000Y-116300000D01*
X128585800Y-108385800D02*
X129500000Y-109300000D01*
X129500000Y-109300000D02*
X129500000Y-115000000D01*
X129500000Y-115000000D02*
X130800000Y-116300000D01*
X126711400Y-108385800D02*
X128585800Y-108385800D01*
X169767000Y-88933000D02*
X169767000Y-90238000D01*
X170200000Y-88500000D02*
X169767000Y-88933000D01*
X170200000Y-84700000D02*
X170200000Y-88500000D01*
X169700000Y-84200000D02*
X170200000Y-84700000D01*
X146700000Y-84200000D02*
X169700000Y-84200000D01*
X146700000Y-106300000D02*
X146700000Y-91300000D01*
X136700000Y-116300000D02*
X146700000Y-106300000D01*
M02*
