G04 #@! TF.FileFunction,Legend,Top*
%FSLAX46Y46*%
G04 Gerber Fmt 4.6, Leading zero omitted, Abs format (unit mm)*
G04 Created by KiCad (PCBNEW 4.0.6) date Monday, August 21, 2017 'PMt' 07:13:58 PM*
%MOMM*%
%LPD*%
G01*
G04 APERTURE LIST*
%ADD10C,0.100000*%
%ADD11C,0.150000*%
%ADD12C,0.120000*%
G04 APERTURE END LIST*
D10*
D11*
X196552381Y-58966666D02*
X196076190Y-59300000D01*
X196552381Y-59538095D02*
X195552381Y-59538095D01*
X195552381Y-59157142D01*
X195600000Y-59061904D01*
X195647619Y-59014285D01*
X195742857Y-58966666D01*
X195885714Y-58966666D01*
X195980952Y-59014285D01*
X196028571Y-59061904D01*
X196076190Y-59157142D01*
X196076190Y-59538095D01*
X195552381Y-58633333D02*
X196552381Y-57966666D01*
X195552381Y-57966666D02*
X196552381Y-58633333D01*
X195552381Y-62861905D02*
X195552381Y-62290476D01*
X196552381Y-62576191D02*
X195552381Y-62576191D01*
X195552381Y-62052381D02*
X196552381Y-61385714D01*
X195552381Y-61385714D02*
X196552381Y-62052381D01*
X196552381Y-66461905D02*
X195552381Y-66461905D01*
X195552381Y-66223810D01*
X195600000Y-66080952D01*
X195695238Y-65985714D01*
X195790476Y-65938095D01*
X195980952Y-65890476D01*
X196123810Y-65890476D01*
X196314286Y-65938095D01*
X196409524Y-65985714D01*
X196504762Y-66080952D01*
X196552381Y-66223810D01*
X196552381Y-66461905D01*
X196028571Y-65128571D02*
X196076190Y-64985714D01*
X196123810Y-64938095D01*
X196219048Y-64890476D01*
X196361905Y-64890476D01*
X196457143Y-64938095D01*
X196504762Y-64985714D01*
X196552381Y-65080952D01*
X196552381Y-65461905D01*
X195552381Y-65461905D01*
X195552381Y-65128571D01*
X195600000Y-65033333D01*
X195647619Y-64985714D01*
X195742857Y-64938095D01*
X195838095Y-64938095D01*
X195933333Y-64985714D01*
X195980952Y-65033333D01*
X196028571Y-65128571D01*
X196028571Y-65461905D01*
X195600000Y-63938095D02*
X195552381Y-64033333D01*
X195552381Y-64176190D01*
X195600000Y-64319048D01*
X195695238Y-64414286D01*
X195790476Y-64461905D01*
X195980952Y-64509524D01*
X196123810Y-64509524D01*
X196314286Y-64461905D01*
X196409524Y-64414286D01*
X196504762Y-64319048D01*
X196552381Y-64176190D01*
X196552381Y-64080952D01*
X196504762Y-63938095D01*
X196457143Y-63890476D01*
X196123810Y-63890476D01*
X196123810Y-64080952D01*
X129557143Y-67228571D02*
X129604762Y-67276190D01*
X129652381Y-67419047D01*
X129652381Y-67514285D01*
X129604762Y-67657143D01*
X129509524Y-67752381D01*
X129414286Y-67800000D01*
X129223810Y-67847619D01*
X129080952Y-67847619D01*
X128890476Y-67800000D01*
X128795238Y-67752381D01*
X128700000Y-67657143D01*
X128652381Y-67514285D01*
X128652381Y-67419047D01*
X128700000Y-67276190D01*
X128747619Y-67228571D01*
X129604762Y-66847619D02*
X129652381Y-66704762D01*
X129652381Y-66466666D01*
X129604762Y-66371428D01*
X129557143Y-66323809D01*
X129461905Y-66276190D01*
X129366667Y-66276190D01*
X129271429Y-66323809D01*
X129223810Y-66371428D01*
X129176190Y-66466666D01*
X129128571Y-66657143D01*
X129080952Y-66752381D01*
X129033333Y-66800000D01*
X128938095Y-66847619D01*
X128842857Y-66847619D01*
X128747619Y-66800000D01*
X128700000Y-66752381D01*
X128652381Y-66657143D01*
X128652381Y-66419047D01*
X128700000Y-66276190D01*
X129747619Y-66085714D02*
X129747619Y-65323809D01*
X129652381Y-64514285D02*
X129176190Y-64847619D01*
X129652381Y-65085714D02*
X128652381Y-65085714D01*
X128652381Y-64704761D01*
X128700000Y-64609523D01*
X128747619Y-64561904D01*
X128842857Y-64514285D01*
X128985714Y-64514285D01*
X129080952Y-64561904D01*
X129128571Y-64609523D01*
X129176190Y-64704761D01*
X129176190Y-65085714D01*
X128652381Y-64228571D02*
X128652381Y-63657142D01*
X129652381Y-63942857D02*
X128652381Y-63942857D01*
X129557143Y-62752380D02*
X129604762Y-62799999D01*
X129652381Y-62942856D01*
X129652381Y-63038094D01*
X129604762Y-63180952D01*
X129509524Y-63276190D01*
X129414286Y-63323809D01*
X129223810Y-63371428D01*
X129080952Y-63371428D01*
X128890476Y-63323809D01*
X128795238Y-63276190D01*
X128700000Y-63180952D01*
X128652381Y-63038094D01*
X128652381Y-62942856D01*
X128700000Y-62799999D01*
X128747619Y-62752380D01*
X126857143Y-67442857D02*
X126904762Y-67490476D01*
X126952381Y-67633333D01*
X126952381Y-67728571D01*
X126904762Y-67871429D01*
X126809524Y-67966667D01*
X126714286Y-68014286D01*
X126523810Y-68061905D01*
X126380952Y-68061905D01*
X126190476Y-68014286D01*
X126095238Y-67966667D01*
X126000000Y-67871429D01*
X125952381Y-67728571D01*
X125952381Y-67633333D01*
X126000000Y-67490476D01*
X126047619Y-67442857D01*
X126904762Y-67061905D02*
X126952381Y-66919048D01*
X126952381Y-66680952D01*
X126904762Y-66585714D01*
X126857143Y-66538095D01*
X126761905Y-66490476D01*
X126666667Y-66490476D01*
X126571429Y-66538095D01*
X126523810Y-66585714D01*
X126476190Y-66680952D01*
X126428571Y-66871429D01*
X126380952Y-66966667D01*
X126333333Y-67014286D01*
X126238095Y-67061905D01*
X126142857Y-67061905D01*
X126047619Y-67014286D01*
X126000000Y-66966667D01*
X125952381Y-66871429D01*
X125952381Y-66633333D01*
X126000000Y-66490476D01*
X127047619Y-66300000D02*
X127047619Y-65538095D01*
X126952381Y-65300000D02*
X125952381Y-65300000D01*
X126666667Y-64966666D01*
X125952381Y-64633333D01*
X126952381Y-64633333D01*
X126428571Y-64157143D02*
X126428571Y-63823809D01*
X126952381Y-63680952D02*
X126952381Y-64157143D01*
X125952381Y-64157143D01*
X125952381Y-63680952D01*
X126952381Y-63252381D02*
X125952381Y-63252381D01*
X126666667Y-62919047D01*
X125952381Y-62585714D01*
X126952381Y-62585714D01*
X183094381Y-118435381D02*
X182761047Y-117959190D01*
X182522952Y-118435381D02*
X182522952Y-117435381D01*
X182903905Y-117435381D01*
X182999143Y-117483000D01*
X183046762Y-117530619D01*
X183094381Y-117625857D01*
X183094381Y-117768714D01*
X183046762Y-117863952D01*
X182999143Y-117911571D01*
X182903905Y-117959190D01*
X182522952Y-117959190D01*
X183475333Y-118387762D02*
X183618190Y-118435381D01*
X183856286Y-118435381D01*
X183951524Y-118387762D01*
X183999143Y-118340143D01*
X184046762Y-118244905D01*
X184046762Y-118149667D01*
X183999143Y-118054429D01*
X183951524Y-118006810D01*
X183856286Y-117959190D01*
X183665809Y-117911571D01*
X183570571Y-117863952D01*
X183522952Y-117816333D01*
X183475333Y-117721095D01*
X183475333Y-117625857D01*
X183522952Y-117530619D01*
X183570571Y-117483000D01*
X183665809Y-117435381D01*
X183903905Y-117435381D01*
X184046762Y-117483000D01*
X184332476Y-117435381D02*
X184903905Y-117435381D01*
X184618190Y-118435381D02*
X184618190Y-117435381D01*
X181435572Y-115895381D02*
X181435572Y-114895381D01*
X181768906Y-115609667D01*
X182102239Y-114895381D01*
X182102239Y-115895381D01*
X182578429Y-115895381D02*
X182578429Y-114895381D01*
X183007000Y-115847762D02*
X183149857Y-115895381D01*
X183387953Y-115895381D01*
X183483191Y-115847762D01*
X183530810Y-115800143D01*
X183578429Y-115704905D01*
X183578429Y-115609667D01*
X183530810Y-115514429D01*
X183483191Y-115466810D01*
X183387953Y-115419190D01*
X183197476Y-115371571D01*
X183102238Y-115323952D01*
X183054619Y-115276333D01*
X183007000Y-115181095D01*
X183007000Y-115085857D01*
X183054619Y-114990619D01*
X183102238Y-114943000D01*
X183197476Y-114895381D01*
X183435572Y-114895381D01*
X183578429Y-114943000D01*
X184197476Y-114895381D02*
X184387953Y-114895381D01*
X184483191Y-114943000D01*
X184578429Y-115038238D01*
X184626048Y-115228714D01*
X184626048Y-115562048D01*
X184578429Y-115752524D01*
X184483191Y-115847762D01*
X184387953Y-115895381D01*
X184197476Y-115895381D01*
X184102238Y-115847762D01*
X184007000Y-115752524D01*
X183959381Y-115562048D01*
X183959381Y-115228714D01*
X184007000Y-115038238D01*
X184102238Y-114943000D01*
X184197476Y-114895381D01*
X181435572Y-113355381D02*
X181435572Y-112355381D01*
X181768906Y-113069667D01*
X182102239Y-112355381D01*
X182102239Y-113355381D01*
X182768905Y-112355381D02*
X182959382Y-112355381D01*
X183054620Y-112403000D01*
X183149858Y-112498238D01*
X183197477Y-112688714D01*
X183197477Y-113022048D01*
X183149858Y-113212524D01*
X183054620Y-113307762D01*
X182959382Y-113355381D01*
X182768905Y-113355381D01*
X182673667Y-113307762D01*
X182578429Y-113212524D01*
X182530810Y-113022048D01*
X182530810Y-112688714D01*
X182578429Y-112498238D01*
X182673667Y-112403000D01*
X182768905Y-112355381D01*
X183578429Y-113307762D02*
X183721286Y-113355381D01*
X183959382Y-113355381D01*
X184054620Y-113307762D01*
X184102239Y-113260143D01*
X184149858Y-113164905D01*
X184149858Y-113069667D01*
X184102239Y-112974429D01*
X184054620Y-112926810D01*
X183959382Y-112879190D01*
X183768905Y-112831571D01*
X183673667Y-112783952D01*
X183626048Y-112736333D01*
X183578429Y-112641095D01*
X183578429Y-112545857D01*
X183626048Y-112450619D01*
X183673667Y-112403000D01*
X183768905Y-112355381D01*
X184007001Y-112355381D01*
X184149858Y-112403000D01*
X184578429Y-113355381D02*
X184578429Y-112355381D01*
X182356286Y-110767762D02*
X182499143Y-110815381D01*
X182737239Y-110815381D01*
X182832477Y-110767762D01*
X182880096Y-110720143D01*
X182927715Y-110624905D01*
X182927715Y-110529667D01*
X182880096Y-110434429D01*
X182832477Y-110386810D01*
X182737239Y-110339190D01*
X182546762Y-110291571D01*
X182451524Y-110243952D01*
X182403905Y-110196333D01*
X182356286Y-110101095D01*
X182356286Y-110005857D01*
X182403905Y-109910619D01*
X182451524Y-109863000D01*
X182546762Y-109815381D01*
X182784858Y-109815381D01*
X182927715Y-109863000D01*
X183927715Y-110720143D02*
X183880096Y-110767762D01*
X183737239Y-110815381D01*
X183642001Y-110815381D01*
X183499143Y-110767762D01*
X183403905Y-110672524D01*
X183356286Y-110577286D01*
X183308667Y-110386810D01*
X183308667Y-110243952D01*
X183356286Y-110053476D01*
X183403905Y-109958238D01*
X183499143Y-109863000D01*
X183642001Y-109815381D01*
X183737239Y-109815381D01*
X183880096Y-109863000D01*
X183927715Y-109910619D01*
X184356286Y-110815381D02*
X184356286Y-109815381D01*
X184927715Y-110815381D02*
X184499143Y-110243952D01*
X184927715Y-109815381D02*
X184356286Y-110386810D01*
X179014381Y-121633952D02*
X178014381Y-121633952D01*
X178728667Y-121300618D01*
X178014381Y-120967285D01*
X179014381Y-120967285D01*
X179014381Y-120491095D02*
X178014381Y-120491095D01*
X178966762Y-120062524D02*
X179014381Y-119919667D01*
X179014381Y-119681571D01*
X178966762Y-119586333D01*
X178919143Y-119538714D01*
X178823905Y-119491095D01*
X178728667Y-119491095D01*
X178633429Y-119538714D01*
X178585810Y-119586333D01*
X178538190Y-119681571D01*
X178490571Y-119872048D01*
X178442952Y-119967286D01*
X178395333Y-120014905D01*
X178300095Y-120062524D01*
X178204857Y-120062524D01*
X178109619Y-120014905D01*
X178062000Y-119967286D01*
X178014381Y-119872048D01*
X178014381Y-119633952D01*
X178062000Y-119491095D01*
X178014381Y-118872048D02*
X178014381Y-118681571D01*
X178062000Y-118586333D01*
X178157238Y-118491095D01*
X178347714Y-118443476D01*
X178681048Y-118443476D01*
X178871524Y-118491095D01*
X178966762Y-118586333D01*
X179014381Y-118681571D01*
X179014381Y-118872048D01*
X178966762Y-118967286D01*
X178871524Y-119062524D01*
X178681048Y-119110143D01*
X178347714Y-119110143D01*
X178157238Y-119062524D01*
X178062000Y-118967286D01*
X178014381Y-118872048D01*
X179109619Y-118253000D02*
X179109619Y-117491095D01*
X178728667Y-117300619D02*
X178728667Y-116824428D01*
X179014381Y-117395857D02*
X178014381Y-117062524D01*
X179014381Y-116729190D01*
X126849143Y-56165619D02*
X126896762Y-56213238D01*
X126944381Y-56356095D01*
X126944381Y-56451333D01*
X126896762Y-56594191D01*
X126801524Y-56689429D01*
X126706286Y-56737048D01*
X126515810Y-56784667D01*
X126372952Y-56784667D01*
X126182476Y-56737048D01*
X126087238Y-56689429D01*
X125992000Y-56594191D01*
X125944381Y-56451333D01*
X125944381Y-56356095D01*
X125992000Y-56213238D01*
X126039619Y-56165619D01*
X126658667Y-55784667D02*
X126658667Y-55308476D01*
X126944381Y-55879905D02*
X125944381Y-55546572D01*
X126944381Y-55213238D01*
X126944381Y-54879905D02*
X125944381Y-54879905D01*
X126944381Y-54308476D01*
X125944381Y-54308476D01*
X126944381Y-53356095D02*
X126944381Y-53832286D01*
X125944381Y-53832286D01*
X124309143Y-56284666D02*
X124356762Y-56332285D01*
X124404381Y-56475142D01*
X124404381Y-56570380D01*
X124356762Y-56713238D01*
X124261524Y-56808476D01*
X124166286Y-56856095D01*
X123975810Y-56903714D01*
X123832952Y-56903714D01*
X123642476Y-56856095D01*
X123547238Y-56808476D01*
X123452000Y-56713238D01*
X123404381Y-56570380D01*
X123404381Y-56475142D01*
X123452000Y-56332285D01*
X123499619Y-56284666D01*
X124118667Y-55903714D02*
X124118667Y-55427523D01*
X124404381Y-55998952D02*
X123404381Y-55665619D01*
X124404381Y-55332285D01*
X124404381Y-54998952D02*
X123404381Y-54998952D01*
X124404381Y-54427523D01*
X123404381Y-54427523D01*
X124404381Y-53951333D02*
X123404381Y-53951333D01*
X123880571Y-53951333D02*
X123880571Y-53379904D01*
X124404381Y-53379904D02*
X123404381Y-53379904D01*
X121864381Y-55919666D02*
X121388190Y-56253000D01*
X121864381Y-56491095D02*
X120864381Y-56491095D01*
X120864381Y-56110142D01*
X120912000Y-56014904D01*
X120959619Y-55967285D01*
X121054857Y-55919666D01*
X121197714Y-55919666D01*
X121292952Y-55967285D01*
X121340571Y-56014904D01*
X121388190Y-56110142D01*
X121388190Y-56491095D01*
X120864381Y-55586333D02*
X121864381Y-54919666D01*
X120864381Y-54919666D02*
X121864381Y-55586333D01*
X118324381Y-56514905D02*
X118324381Y-55943476D01*
X119324381Y-56229191D02*
X118324381Y-56229191D01*
X118324381Y-55705381D02*
X119324381Y-55038714D01*
X118324381Y-55038714D02*
X119324381Y-55705381D01*
X124356762Y-65293714D02*
X124404381Y-65150857D01*
X124404381Y-64912761D01*
X124356762Y-64817523D01*
X124309143Y-64769904D01*
X124213905Y-64722285D01*
X124118667Y-64722285D01*
X124023429Y-64769904D01*
X123975810Y-64817523D01*
X123928190Y-64912761D01*
X123880571Y-65103238D01*
X123832952Y-65198476D01*
X123785333Y-65246095D01*
X123690095Y-65293714D01*
X123594857Y-65293714D01*
X123499619Y-65246095D01*
X123452000Y-65198476D01*
X123404381Y-65103238D01*
X123404381Y-64865142D01*
X123452000Y-64722285D01*
X124309143Y-63722285D02*
X124356762Y-63769904D01*
X124404381Y-63912761D01*
X124404381Y-64007999D01*
X124356762Y-64150857D01*
X124261524Y-64246095D01*
X124166286Y-64293714D01*
X123975810Y-64341333D01*
X123832952Y-64341333D01*
X123642476Y-64293714D01*
X123547238Y-64246095D01*
X123452000Y-64150857D01*
X123404381Y-64007999D01*
X123404381Y-63912761D01*
X123452000Y-63769904D01*
X123499619Y-63722285D01*
X124404381Y-63293714D02*
X123404381Y-63293714D01*
X124404381Y-62722285D02*
X123832952Y-63150857D01*
X123404381Y-62722285D02*
X123975810Y-63293714D01*
X121864381Y-65579428D02*
X120864381Y-65579428D01*
X121578667Y-65246094D01*
X120864381Y-64912761D01*
X121864381Y-64912761D01*
X120864381Y-64246095D02*
X120864381Y-64055618D01*
X120912000Y-63960380D01*
X121007238Y-63865142D01*
X121197714Y-63817523D01*
X121531048Y-63817523D01*
X121721524Y-63865142D01*
X121816762Y-63960380D01*
X121864381Y-64055618D01*
X121864381Y-64246095D01*
X121816762Y-64341333D01*
X121721524Y-64436571D01*
X121531048Y-64484190D01*
X121197714Y-64484190D01*
X121007238Y-64436571D01*
X120912000Y-64341333D01*
X120864381Y-64246095D01*
X121816762Y-63436571D02*
X121864381Y-63293714D01*
X121864381Y-63055618D01*
X121816762Y-62960380D01*
X121769143Y-62912761D01*
X121673905Y-62865142D01*
X121578667Y-62865142D01*
X121483429Y-62912761D01*
X121435810Y-62960380D01*
X121388190Y-63055618D01*
X121340571Y-63246095D01*
X121292952Y-63341333D01*
X121245333Y-63388952D01*
X121150095Y-63436571D01*
X121054857Y-63436571D01*
X120959619Y-63388952D01*
X120912000Y-63341333D01*
X120864381Y-63246095D01*
X120864381Y-63007999D01*
X120912000Y-62865142D01*
X121864381Y-62436571D02*
X120864381Y-62436571D01*
X119324381Y-65579428D02*
X118324381Y-65579428D01*
X119038667Y-65246094D01*
X118324381Y-64912761D01*
X119324381Y-64912761D01*
X119324381Y-64436571D02*
X118324381Y-64436571D01*
X119276762Y-64008000D02*
X119324381Y-63865143D01*
X119324381Y-63627047D01*
X119276762Y-63531809D01*
X119229143Y-63484190D01*
X119133905Y-63436571D01*
X119038667Y-63436571D01*
X118943429Y-63484190D01*
X118895810Y-63531809D01*
X118848190Y-63627047D01*
X118800571Y-63817524D01*
X118752952Y-63912762D01*
X118705333Y-63960381D01*
X118610095Y-64008000D01*
X118514857Y-64008000D01*
X118419619Y-63960381D01*
X118372000Y-63912762D01*
X118324381Y-63817524D01*
X118324381Y-63579428D01*
X118372000Y-63436571D01*
X118324381Y-62817524D02*
X118324381Y-62627047D01*
X118372000Y-62531809D01*
X118467238Y-62436571D01*
X118657714Y-62388952D01*
X118991048Y-62388952D01*
X119181524Y-62436571D01*
X119276762Y-62531809D01*
X119324381Y-62627047D01*
X119324381Y-62817524D01*
X119276762Y-62912762D01*
X119181524Y-63008000D01*
X118991048Y-63055619D01*
X118657714Y-63055619D01*
X118467238Y-63008000D01*
X118372000Y-62912762D01*
X118324381Y-62817524D01*
X115252381Y-63500000D02*
X114252381Y-63500000D01*
X114252381Y-63261905D01*
X114300000Y-63119047D01*
X114395238Y-63023809D01*
X114490476Y-62976190D01*
X114680952Y-62928571D01*
X114823810Y-62928571D01*
X115014286Y-62976190D01*
X115109524Y-63023809D01*
X115204762Y-63119047D01*
X115252381Y-63261905D01*
X115252381Y-63500000D01*
X114728571Y-62500000D02*
X114728571Y-62166666D01*
X115252381Y-62023809D02*
X115252381Y-62500000D01*
X114252381Y-62500000D01*
X114252381Y-62023809D01*
X114728571Y-61261904D02*
X114776190Y-61119047D01*
X114823810Y-61071428D01*
X114919048Y-61023809D01*
X115061905Y-61023809D01*
X115157143Y-61071428D01*
X115204762Y-61119047D01*
X115252381Y-61214285D01*
X115252381Y-61595238D01*
X114252381Y-61595238D01*
X114252381Y-61261904D01*
X114300000Y-61166666D01*
X114347619Y-61119047D01*
X114442857Y-61071428D01*
X114538095Y-61071428D01*
X114633333Y-61119047D01*
X114680952Y-61166666D01*
X114728571Y-61261904D01*
X114728571Y-61595238D01*
X114252381Y-60595238D02*
X115061905Y-60595238D01*
X115157143Y-60547619D01*
X115204762Y-60500000D01*
X115252381Y-60404762D01*
X115252381Y-60214285D01*
X115204762Y-60119047D01*
X115157143Y-60071428D01*
X115061905Y-60023809D01*
X114252381Y-60023809D01*
X114300000Y-59023809D02*
X114252381Y-59119047D01*
X114252381Y-59261904D01*
X114300000Y-59404762D01*
X114395238Y-59500000D01*
X114490476Y-59547619D01*
X114680952Y-59595238D01*
X114823810Y-59595238D01*
X115014286Y-59547619D01*
X115109524Y-59500000D01*
X115204762Y-59404762D01*
X115252381Y-59261904D01*
X115252381Y-59166666D01*
X115204762Y-59023809D01*
X115157143Y-58976190D01*
X114823810Y-58976190D01*
X114823810Y-59166666D01*
X114300000Y-58023809D02*
X114252381Y-58119047D01*
X114252381Y-58261904D01*
X114300000Y-58404762D01*
X114395238Y-58500000D01*
X114490476Y-58547619D01*
X114680952Y-58595238D01*
X114823810Y-58595238D01*
X115014286Y-58547619D01*
X115109524Y-58500000D01*
X115204762Y-58404762D01*
X115252381Y-58261904D01*
X115252381Y-58166666D01*
X115204762Y-58023809D01*
X115157143Y-57976190D01*
X114823810Y-57976190D01*
X114823810Y-58166666D01*
X115252381Y-57547619D02*
X114252381Y-57547619D01*
X115252381Y-57071429D02*
X114252381Y-57071429D01*
X115252381Y-56500000D01*
X114252381Y-56500000D01*
X114300000Y-55500000D02*
X114252381Y-55595238D01*
X114252381Y-55738095D01*
X114300000Y-55880953D01*
X114395238Y-55976191D01*
X114490476Y-56023810D01*
X114680952Y-56071429D01*
X114823810Y-56071429D01*
X115014286Y-56023810D01*
X115109524Y-55976191D01*
X115204762Y-55880953D01*
X115252381Y-55738095D01*
X115252381Y-55642857D01*
X115204762Y-55500000D01*
X115157143Y-55452381D01*
X114823810Y-55452381D01*
X114823810Y-55642857D01*
X194524381Y-117053952D02*
X195238667Y-117053952D01*
X195381524Y-117101572D01*
X195476762Y-117196810D01*
X195524381Y-117339667D01*
X195524381Y-117434905D01*
X194524381Y-116577762D02*
X195333905Y-116577762D01*
X195429143Y-116530143D01*
X195476762Y-116482524D01*
X195524381Y-116387286D01*
X195524381Y-116196809D01*
X195476762Y-116101571D01*
X195429143Y-116053952D01*
X195333905Y-116006333D01*
X194524381Y-116006333D01*
X195524381Y-115530143D02*
X194524381Y-115530143D01*
X195238667Y-115196809D01*
X194524381Y-114863476D01*
X195524381Y-114863476D01*
X195524381Y-114387286D02*
X194524381Y-114387286D01*
X194524381Y-114006333D01*
X194572000Y-113911095D01*
X194619619Y-113863476D01*
X194714857Y-113815857D01*
X194857714Y-113815857D01*
X194952952Y-113863476D01*
X195000571Y-113911095D01*
X195048190Y-114006333D01*
X195048190Y-114387286D01*
X195000571Y-113387286D02*
X195000571Y-113053952D01*
X195524381Y-112911095D02*
X195524381Y-113387286D01*
X194524381Y-113387286D01*
X194524381Y-112911095D01*
X195524381Y-111911095D02*
X195048190Y-112244429D01*
X195524381Y-112482524D02*
X194524381Y-112482524D01*
X194524381Y-112101571D01*
X194572000Y-112006333D01*
X194619619Y-111958714D01*
X194714857Y-111911095D01*
X194857714Y-111911095D01*
X194952952Y-111958714D01*
X195000571Y-112006333D01*
X195048190Y-112101571D01*
X195048190Y-112482524D01*
X195476762Y-111530143D02*
X195524381Y-111387286D01*
X195524381Y-111149190D01*
X195476762Y-111053952D01*
X195429143Y-111006333D01*
X195333905Y-110958714D01*
X195238667Y-110958714D01*
X195143429Y-111006333D01*
X195095810Y-111053952D01*
X195048190Y-111149190D01*
X195000571Y-111339667D01*
X194952952Y-111434905D01*
X194905333Y-111482524D01*
X194810095Y-111530143D01*
X194714857Y-111530143D01*
X194619619Y-111482524D01*
X194572000Y-111434905D01*
X194524381Y-111339667D01*
X194524381Y-111101571D01*
X194572000Y-110958714D01*
X195524381Y-78795381D02*
X195048190Y-79128715D01*
X195524381Y-79366810D02*
X194524381Y-79366810D01*
X194524381Y-78985857D01*
X194572000Y-78890619D01*
X194619619Y-78843000D01*
X194714857Y-78795381D01*
X194857714Y-78795381D01*
X194952952Y-78843000D01*
X195000571Y-78890619D01*
X195048190Y-78985857D01*
X195048190Y-79366810D01*
X195000571Y-78366810D02*
X195000571Y-78033476D01*
X195524381Y-77890619D02*
X195524381Y-78366810D01*
X194524381Y-78366810D01*
X194524381Y-77890619D01*
X195476762Y-77509667D02*
X195524381Y-77366810D01*
X195524381Y-77128714D01*
X195476762Y-77033476D01*
X195429143Y-76985857D01*
X195333905Y-76938238D01*
X195238667Y-76938238D01*
X195143429Y-76985857D01*
X195095810Y-77033476D01*
X195048190Y-77128714D01*
X195000571Y-77319191D01*
X194952952Y-77414429D01*
X194905333Y-77462048D01*
X194810095Y-77509667D01*
X194714857Y-77509667D01*
X194619619Y-77462048D01*
X194572000Y-77414429D01*
X194524381Y-77319191D01*
X194524381Y-77081095D01*
X194572000Y-76938238D01*
X195000571Y-76509667D02*
X195000571Y-76176333D01*
X195524381Y-76033476D02*
X195524381Y-76509667D01*
X194524381Y-76509667D01*
X194524381Y-76033476D01*
X194524381Y-75747762D02*
X194524381Y-75176333D01*
X195524381Y-75462048D02*
X194524381Y-75462048D01*
X195524381Y-98972047D02*
X194524381Y-98972047D01*
X194524381Y-98591094D01*
X194572000Y-98495856D01*
X194619619Y-98448237D01*
X194714857Y-98400618D01*
X194857714Y-98400618D01*
X194952952Y-98448237D01*
X195000571Y-98495856D01*
X195048190Y-98591094D01*
X195048190Y-98972047D01*
X195524381Y-97400618D02*
X195048190Y-97733952D01*
X195524381Y-97972047D02*
X194524381Y-97972047D01*
X194524381Y-97591094D01*
X194572000Y-97495856D01*
X194619619Y-97448237D01*
X194714857Y-97400618D01*
X194857714Y-97400618D01*
X194952952Y-97448237D01*
X195000571Y-97495856D01*
X195048190Y-97591094D01*
X195048190Y-97972047D01*
X194524381Y-96781571D02*
X194524381Y-96591094D01*
X194572000Y-96495856D01*
X194667238Y-96400618D01*
X194857714Y-96352999D01*
X195191048Y-96352999D01*
X195381524Y-96400618D01*
X195476762Y-96495856D01*
X195524381Y-96591094D01*
X195524381Y-96781571D01*
X195476762Y-96876809D01*
X195381524Y-96972047D01*
X195191048Y-97019666D01*
X194857714Y-97019666D01*
X194667238Y-96972047D01*
X194572000Y-96876809D01*
X194524381Y-96781571D01*
X194572000Y-95400618D02*
X194524381Y-95495856D01*
X194524381Y-95638713D01*
X194572000Y-95781571D01*
X194667238Y-95876809D01*
X194762476Y-95924428D01*
X194952952Y-95972047D01*
X195095810Y-95972047D01*
X195286286Y-95924428D01*
X195381524Y-95876809D01*
X195476762Y-95781571D01*
X195524381Y-95638713D01*
X195524381Y-95543475D01*
X195476762Y-95400618D01*
X195429143Y-95352999D01*
X195095810Y-95352999D01*
X195095810Y-95543475D01*
X195524381Y-94352999D02*
X195048190Y-94686333D01*
X195524381Y-94924428D02*
X194524381Y-94924428D01*
X194524381Y-94543475D01*
X194572000Y-94448237D01*
X194619619Y-94400618D01*
X194714857Y-94352999D01*
X194857714Y-94352999D01*
X194952952Y-94400618D01*
X195000571Y-94448237D01*
X195048190Y-94543475D01*
X195048190Y-94924428D01*
X195238667Y-93972047D02*
X195238667Y-93495856D01*
X195524381Y-94067285D02*
X194524381Y-93733952D01*
X195524381Y-93400618D01*
X195524381Y-93067285D02*
X194524381Y-93067285D01*
X195238667Y-92733951D01*
X194524381Y-92400618D01*
X195524381Y-92400618D01*
X195524381Y-91924428D02*
X194524381Y-91924428D01*
X195238667Y-91591094D01*
X194524381Y-91257761D01*
X195524381Y-91257761D01*
X195524381Y-90781571D02*
X194524381Y-90781571D01*
X195524381Y-90305381D02*
X194524381Y-90305381D01*
X195524381Y-89733952D01*
X194524381Y-89733952D01*
X194572000Y-88733952D02*
X194524381Y-88829190D01*
X194524381Y-88972047D01*
X194572000Y-89114905D01*
X194667238Y-89210143D01*
X194762476Y-89257762D01*
X194952952Y-89305381D01*
X195095810Y-89305381D01*
X195286286Y-89257762D01*
X195381524Y-89210143D01*
X195476762Y-89114905D01*
X195524381Y-88972047D01*
X195524381Y-88876809D01*
X195476762Y-88733952D01*
X195429143Y-88686333D01*
X195095810Y-88686333D01*
X195095810Y-88876809D01*
X156059143Y-120927523D02*
X156106762Y-120975142D01*
X156154381Y-121117999D01*
X156154381Y-121213237D01*
X156106762Y-121356095D01*
X156011524Y-121451333D01*
X155916286Y-121498952D01*
X155725810Y-121546571D01*
X155582952Y-121546571D01*
X155392476Y-121498952D01*
X155297238Y-121451333D01*
X155202000Y-121356095D01*
X155154381Y-121213237D01*
X155154381Y-121117999D01*
X155202000Y-120975142D01*
X155249619Y-120927523D01*
X156249619Y-120737047D02*
X156249619Y-119975142D01*
X156154381Y-119737047D02*
X155154381Y-119737047D01*
X155868667Y-119403713D01*
X155154381Y-119070380D01*
X156154381Y-119070380D01*
X155154381Y-118403714D02*
X155154381Y-118213237D01*
X155202000Y-118117999D01*
X155297238Y-118022761D01*
X155487714Y-117975142D01*
X155821048Y-117975142D01*
X156011524Y-118022761D01*
X156106762Y-118117999D01*
X156154381Y-118213237D01*
X156154381Y-118403714D01*
X156106762Y-118498952D01*
X156011524Y-118594190D01*
X155821048Y-118641809D01*
X155487714Y-118641809D01*
X155297238Y-118594190D01*
X155202000Y-118498952D01*
X155154381Y-118403714D01*
X156106762Y-117594190D02*
X156154381Y-117451333D01*
X156154381Y-117213237D01*
X156106762Y-117117999D01*
X156059143Y-117070380D01*
X155963905Y-117022761D01*
X155868667Y-117022761D01*
X155773429Y-117070380D01*
X155725810Y-117117999D01*
X155678190Y-117213237D01*
X155630571Y-117403714D01*
X155582952Y-117498952D01*
X155535333Y-117546571D01*
X155440095Y-117594190D01*
X155344857Y-117594190D01*
X155249619Y-117546571D01*
X155202000Y-117498952D01*
X155154381Y-117403714D01*
X155154381Y-117165618D01*
X155202000Y-117022761D01*
X156154381Y-116594190D02*
X155154381Y-116594190D01*
X155868667Y-116165619D02*
X155868667Y-115689428D01*
X156154381Y-116260857D02*
X155154381Y-115927524D01*
X156154381Y-115594190D01*
X158599143Y-120927523D02*
X158646762Y-120975142D01*
X158694381Y-121117999D01*
X158694381Y-121213237D01*
X158646762Y-121356095D01*
X158551524Y-121451333D01*
X158456286Y-121498952D01*
X158265810Y-121546571D01*
X158122952Y-121546571D01*
X157932476Y-121498952D01*
X157837238Y-121451333D01*
X157742000Y-121356095D01*
X157694381Y-121213237D01*
X157694381Y-121117999D01*
X157742000Y-120975142D01*
X157789619Y-120927523D01*
X158789619Y-120737047D02*
X158789619Y-119975142D01*
X158694381Y-119737047D02*
X157694381Y-119737047D01*
X158408667Y-119403713D01*
X157694381Y-119070380D01*
X158694381Y-119070380D01*
X158694381Y-118594190D02*
X157694381Y-118594190D01*
X158646762Y-118165619D02*
X158694381Y-118022762D01*
X158694381Y-117784666D01*
X158646762Y-117689428D01*
X158599143Y-117641809D01*
X158503905Y-117594190D01*
X158408667Y-117594190D01*
X158313429Y-117641809D01*
X158265810Y-117689428D01*
X158218190Y-117784666D01*
X158170571Y-117975143D01*
X158122952Y-118070381D01*
X158075333Y-118118000D01*
X157980095Y-118165619D01*
X157884857Y-118165619D01*
X157789619Y-118118000D01*
X157742000Y-118070381D01*
X157694381Y-117975143D01*
X157694381Y-117737047D01*
X157742000Y-117594190D01*
X157694381Y-116975143D02*
X157694381Y-116784666D01*
X157742000Y-116689428D01*
X157837238Y-116594190D01*
X158027714Y-116546571D01*
X158361048Y-116546571D01*
X158551524Y-116594190D01*
X158646762Y-116689428D01*
X158694381Y-116784666D01*
X158694381Y-116975143D01*
X158646762Y-117070381D01*
X158551524Y-117165619D01*
X158361048Y-117213238D01*
X158027714Y-117213238D01*
X157837238Y-117165619D01*
X157742000Y-117070381D01*
X157694381Y-116975143D01*
X158408667Y-116165619D02*
X158408667Y-115689428D01*
X158694381Y-116260857D02*
X157694381Y-115927524D01*
X158694381Y-115594190D01*
X161234381Y-121498952D02*
X160234381Y-121498952D01*
X160234381Y-121117999D01*
X160282000Y-121022761D01*
X160329619Y-120975142D01*
X160424857Y-120927523D01*
X160567714Y-120927523D01*
X160662952Y-120975142D01*
X160710571Y-121022761D01*
X160758190Y-121117999D01*
X160758190Y-121498952D01*
X161329619Y-120737047D02*
X161329619Y-119975142D01*
X161234381Y-119737047D02*
X160234381Y-119737047D01*
X160948667Y-119403713D01*
X160234381Y-119070380D01*
X161234381Y-119070380D01*
X160234381Y-118403714D02*
X160234381Y-118213237D01*
X160282000Y-118117999D01*
X160377238Y-118022761D01*
X160567714Y-117975142D01*
X160901048Y-117975142D01*
X161091524Y-118022761D01*
X161186762Y-118117999D01*
X161234381Y-118213237D01*
X161234381Y-118403714D01*
X161186762Y-118498952D01*
X161091524Y-118594190D01*
X160901048Y-118641809D01*
X160567714Y-118641809D01*
X160377238Y-118594190D01*
X160282000Y-118498952D01*
X160234381Y-118403714D01*
X161186762Y-117594190D02*
X161234381Y-117451333D01*
X161234381Y-117213237D01*
X161186762Y-117117999D01*
X161139143Y-117070380D01*
X161043905Y-117022761D01*
X160948667Y-117022761D01*
X160853429Y-117070380D01*
X160805810Y-117117999D01*
X160758190Y-117213237D01*
X160710571Y-117403714D01*
X160662952Y-117498952D01*
X160615333Y-117546571D01*
X160520095Y-117594190D01*
X160424857Y-117594190D01*
X160329619Y-117546571D01*
X160282000Y-117498952D01*
X160234381Y-117403714D01*
X160234381Y-117165618D01*
X160282000Y-117022761D01*
X161234381Y-116594190D02*
X160234381Y-116594190D01*
X160948667Y-116165619D02*
X160948667Y-115689428D01*
X161234381Y-116260857D02*
X160234381Y-115927524D01*
X161234381Y-115594190D01*
X163774381Y-121498952D02*
X162774381Y-121498952D01*
X162774381Y-121117999D01*
X162822000Y-121022761D01*
X162869619Y-120975142D01*
X162964857Y-120927523D01*
X163107714Y-120927523D01*
X163202952Y-120975142D01*
X163250571Y-121022761D01*
X163298190Y-121117999D01*
X163298190Y-121498952D01*
X163869619Y-120737047D02*
X163869619Y-119975142D01*
X163774381Y-119737047D02*
X162774381Y-119737047D01*
X163488667Y-119403713D01*
X162774381Y-119070380D01*
X163774381Y-119070380D01*
X163774381Y-118594190D02*
X162774381Y-118594190D01*
X163726762Y-118165619D02*
X163774381Y-118022762D01*
X163774381Y-117784666D01*
X163726762Y-117689428D01*
X163679143Y-117641809D01*
X163583905Y-117594190D01*
X163488667Y-117594190D01*
X163393429Y-117641809D01*
X163345810Y-117689428D01*
X163298190Y-117784666D01*
X163250571Y-117975143D01*
X163202952Y-118070381D01*
X163155333Y-118118000D01*
X163060095Y-118165619D01*
X162964857Y-118165619D01*
X162869619Y-118118000D01*
X162822000Y-118070381D01*
X162774381Y-117975143D01*
X162774381Y-117737047D01*
X162822000Y-117594190D01*
X162774381Y-116975143D02*
X162774381Y-116784666D01*
X162822000Y-116689428D01*
X162917238Y-116594190D01*
X163107714Y-116546571D01*
X163441048Y-116546571D01*
X163631524Y-116594190D01*
X163726762Y-116689428D01*
X163774381Y-116784666D01*
X163774381Y-116975143D01*
X163726762Y-117070381D01*
X163631524Y-117165619D01*
X163441048Y-117213238D01*
X163107714Y-117213238D01*
X162917238Y-117165619D01*
X162822000Y-117070381D01*
X162774381Y-116975143D01*
X163488667Y-116165619D02*
X163488667Y-115689428D01*
X163774381Y-116260857D02*
X162774381Y-115927524D01*
X163774381Y-115594190D01*
X165790571Y-121451333D02*
X165790571Y-121117999D01*
X166314381Y-120975142D02*
X166314381Y-121451333D01*
X165314381Y-121451333D01*
X165314381Y-120975142D01*
X166409619Y-120784666D02*
X166409619Y-120022761D01*
X166314381Y-119784666D02*
X165314381Y-119784666D01*
X166028667Y-119451332D01*
X165314381Y-119117999D01*
X166314381Y-119117999D01*
X165314381Y-118451333D02*
X165314381Y-118260856D01*
X165362000Y-118165618D01*
X165457238Y-118070380D01*
X165647714Y-118022761D01*
X165981048Y-118022761D01*
X166171524Y-118070380D01*
X166266762Y-118165618D01*
X166314381Y-118260856D01*
X166314381Y-118451333D01*
X166266762Y-118546571D01*
X166171524Y-118641809D01*
X165981048Y-118689428D01*
X165647714Y-118689428D01*
X165457238Y-118641809D01*
X165362000Y-118546571D01*
X165314381Y-118451333D01*
X166266762Y-117641809D02*
X166314381Y-117498952D01*
X166314381Y-117260856D01*
X166266762Y-117165618D01*
X166219143Y-117117999D01*
X166123905Y-117070380D01*
X166028667Y-117070380D01*
X165933429Y-117117999D01*
X165885810Y-117165618D01*
X165838190Y-117260856D01*
X165790571Y-117451333D01*
X165742952Y-117546571D01*
X165695333Y-117594190D01*
X165600095Y-117641809D01*
X165504857Y-117641809D01*
X165409619Y-117594190D01*
X165362000Y-117546571D01*
X165314381Y-117451333D01*
X165314381Y-117213237D01*
X165362000Y-117070380D01*
X166314381Y-116641809D02*
X165314381Y-116641809D01*
X166028667Y-116213238D02*
X166028667Y-115737047D01*
X166314381Y-116308476D02*
X165314381Y-115975143D01*
X166314381Y-115641809D01*
X168330571Y-121451333D02*
X168330571Y-121117999D01*
X168854381Y-120975142D02*
X168854381Y-121451333D01*
X167854381Y-121451333D01*
X167854381Y-120975142D01*
X168949619Y-120784666D02*
X168949619Y-120022761D01*
X168854381Y-119784666D02*
X167854381Y-119784666D01*
X168568667Y-119451332D01*
X167854381Y-119117999D01*
X168854381Y-119117999D01*
X168854381Y-118641809D02*
X167854381Y-118641809D01*
X168806762Y-118213238D02*
X168854381Y-118070381D01*
X168854381Y-117832285D01*
X168806762Y-117737047D01*
X168759143Y-117689428D01*
X168663905Y-117641809D01*
X168568667Y-117641809D01*
X168473429Y-117689428D01*
X168425810Y-117737047D01*
X168378190Y-117832285D01*
X168330571Y-118022762D01*
X168282952Y-118118000D01*
X168235333Y-118165619D01*
X168140095Y-118213238D01*
X168044857Y-118213238D01*
X167949619Y-118165619D01*
X167902000Y-118118000D01*
X167854381Y-118022762D01*
X167854381Y-117784666D01*
X167902000Y-117641809D01*
X167854381Y-117022762D02*
X167854381Y-116832285D01*
X167902000Y-116737047D01*
X167997238Y-116641809D01*
X168187714Y-116594190D01*
X168521048Y-116594190D01*
X168711524Y-116641809D01*
X168806762Y-116737047D01*
X168854381Y-116832285D01*
X168854381Y-117022762D01*
X168806762Y-117118000D01*
X168711524Y-117213238D01*
X168521048Y-117260857D01*
X168187714Y-117260857D01*
X167997238Y-117213238D01*
X167902000Y-117118000D01*
X167854381Y-117022762D01*
X168568667Y-116213238D02*
X168568667Y-115737047D01*
X168854381Y-116308476D02*
X167854381Y-115975143D01*
X168854381Y-115641809D01*
X170394381Y-121332286D02*
X170394381Y-121141809D01*
X170442000Y-121046571D01*
X170537238Y-120951333D01*
X170727714Y-120903714D01*
X171061048Y-120903714D01*
X171251524Y-120951333D01*
X171346762Y-121046571D01*
X171394381Y-121141809D01*
X171394381Y-121332286D01*
X171346762Y-121427524D01*
X171251524Y-121522762D01*
X171061048Y-121570381D01*
X170727714Y-121570381D01*
X170537238Y-121522762D01*
X170442000Y-121427524D01*
X170394381Y-121332286D01*
X171489619Y-120713238D02*
X171489619Y-119951333D01*
X171394381Y-119713238D02*
X170394381Y-119713238D01*
X171108667Y-119379904D01*
X170394381Y-119046571D01*
X171394381Y-119046571D01*
X170394381Y-118379905D02*
X170394381Y-118189428D01*
X170442000Y-118094190D01*
X170537238Y-117998952D01*
X170727714Y-117951333D01*
X171061048Y-117951333D01*
X171251524Y-117998952D01*
X171346762Y-118094190D01*
X171394381Y-118189428D01*
X171394381Y-118379905D01*
X171346762Y-118475143D01*
X171251524Y-118570381D01*
X171061048Y-118618000D01*
X170727714Y-118618000D01*
X170537238Y-118570381D01*
X170442000Y-118475143D01*
X170394381Y-118379905D01*
X171346762Y-117570381D02*
X171394381Y-117427524D01*
X171394381Y-117189428D01*
X171346762Y-117094190D01*
X171299143Y-117046571D01*
X171203905Y-116998952D01*
X171108667Y-116998952D01*
X171013429Y-117046571D01*
X170965810Y-117094190D01*
X170918190Y-117189428D01*
X170870571Y-117379905D01*
X170822952Y-117475143D01*
X170775333Y-117522762D01*
X170680095Y-117570381D01*
X170584857Y-117570381D01*
X170489619Y-117522762D01*
X170442000Y-117475143D01*
X170394381Y-117379905D01*
X170394381Y-117141809D01*
X170442000Y-116998952D01*
X171394381Y-116570381D02*
X170394381Y-116570381D01*
X171108667Y-116141810D02*
X171108667Y-115665619D01*
X171394381Y-116237048D02*
X170394381Y-115903715D01*
X171394381Y-115570381D01*
X172934381Y-121332286D02*
X172934381Y-121141809D01*
X172982000Y-121046571D01*
X173077238Y-120951333D01*
X173267714Y-120903714D01*
X173601048Y-120903714D01*
X173791524Y-120951333D01*
X173886762Y-121046571D01*
X173934381Y-121141809D01*
X173934381Y-121332286D01*
X173886762Y-121427524D01*
X173791524Y-121522762D01*
X173601048Y-121570381D01*
X173267714Y-121570381D01*
X173077238Y-121522762D01*
X172982000Y-121427524D01*
X172934381Y-121332286D01*
X174029619Y-120713238D02*
X174029619Y-119951333D01*
X173934381Y-119713238D02*
X172934381Y-119713238D01*
X173648667Y-119379904D01*
X172934381Y-119046571D01*
X173934381Y-119046571D01*
X173934381Y-118570381D02*
X172934381Y-118570381D01*
X173886762Y-118141810D02*
X173934381Y-117998953D01*
X173934381Y-117760857D01*
X173886762Y-117665619D01*
X173839143Y-117618000D01*
X173743905Y-117570381D01*
X173648667Y-117570381D01*
X173553429Y-117618000D01*
X173505810Y-117665619D01*
X173458190Y-117760857D01*
X173410571Y-117951334D01*
X173362952Y-118046572D01*
X173315333Y-118094191D01*
X173220095Y-118141810D01*
X173124857Y-118141810D01*
X173029619Y-118094191D01*
X172982000Y-118046572D01*
X172934381Y-117951334D01*
X172934381Y-117713238D01*
X172982000Y-117570381D01*
X172934381Y-116951334D02*
X172934381Y-116760857D01*
X172982000Y-116665619D01*
X173077238Y-116570381D01*
X173267714Y-116522762D01*
X173601048Y-116522762D01*
X173791524Y-116570381D01*
X173886762Y-116665619D01*
X173934381Y-116760857D01*
X173934381Y-116951334D01*
X173886762Y-117046572D01*
X173791524Y-117141810D01*
X173601048Y-117189429D01*
X173267714Y-117189429D01*
X173077238Y-117141810D01*
X172982000Y-117046572D01*
X172934381Y-116951334D01*
X173648667Y-116141810D02*
X173648667Y-115665619D01*
X173934381Y-116237048D02*
X172934381Y-115903715D01*
X173934381Y-115570381D01*
X176474381Y-121633952D02*
X175474381Y-121633952D01*
X176188667Y-121300618D01*
X175474381Y-120967285D01*
X176474381Y-120967285D01*
X175474381Y-120300619D02*
X175474381Y-120110142D01*
X175522000Y-120014904D01*
X175617238Y-119919666D01*
X175807714Y-119872047D01*
X176141048Y-119872047D01*
X176331524Y-119919666D01*
X176426762Y-120014904D01*
X176474381Y-120110142D01*
X176474381Y-120300619D01*
X176426762Y-120395857D01*
X176331524Y-120491095D01*
X176141048Y-120538714D01*
X175807714Y-120538714D01*
X175617238Y-120491095D01*
X175522000Y-120395857D01*
X175474381Y-120300619D01*
X176426762Y-119491095D02*
X176474381Y-119348238D01*
X176474381Y-119110142D01*
X176426762Y-119014904D01*
X176379143Y-118967285D01*
X176283905Y-118919666D01*
X176188667Y-118919666D01*
X176093429Y-118967285D01*
X176045810Y-119014904D01*
X175998190Y-119110142D01*
X175950571Y-119300619D01*
X175902952Y-119395857D01*
X175855333Y-119443476D01*
X175760095Y-119491095D01*
X175664857Y-119491095D01*
X175569619Y-119443476D01*
X175522000Y-119395857D01*
X175474381Y-119300619D01*
X175474381Y-119062523D01*
X175522000Y-118919666D01*
X176474381Y-118491095D02*
X175474381Y-118491095D01*
X176569619Y-118253000D02*
X176569619Y-117491095D01*
X176188667Y-117300619D02*
X176188667Y-116824428D01*
X176474381Y-117395857D02*
X175474381Y-117062524D01*
X176474381Y-116729190D01*
X176426762Y-131888953D02*
X176474381Y-131746096D01*
X176474381Y-131508000D01*
X176426762Y-131412762D01*
X176379143Y-131365143D01*
X176283905Y-131317524D01*
X176188667Y-131317524D01*
X176093429Y-131365143D01*
X176045810Y-131412762D01*
X175998190Y-131508000D01*
X175950571Y-131698477D01*
X175902952Y-131793715D01*
X175855333Y-131841334D01*
X175760095Y-131888953D01*
X175664857Y-131888953D01*
X175569619Y-131841334D01*
X175522000Y-131793715D01*
X175474381Y-131698477D01*
X175474381Y-131460381D01*
X175522000Y-131317524D01*
X176379143Y-130317524D02*
X176426762Y-130365143D01*
X176474381Y-130508000D01*
X176474381Y-130603238D01*
X176426762Y-130746096D01*
X176331524Y-130841334D01*
X176236286Y-130888953D01*
X176045810Y-130936572D01*
X175902952Y-130936572D01*
X175712476Y-130888953D01*
X175617238Y-130841334D01*
X175522000Y-130746096D01*
X175474381Y-130603238D01*
X175474381Y-130508000D01*
X175522000Y-130365143D01*
X175569619Y-130317524D01*
X176474381Y-129888953D02*
X175474381Y-129888953D01*
X176474381Y-129317524D02*
X175902952Y-129746096D01*
X175474381Y-129317524D02*
X176045810Y-129888953D01*
X176569619Y-129127048D02*
X176569619Y-128365143D01*
X176188667Y-128174667D02*
X176188667Y-127698476D01*
X176474381Y-128269905D02*
X175474381Y-127936572D01*
X176474381Y-127603238D01*
X172934381Y-132794429D02*
X172934381Y-132603952D01*
X172982000Y-132508714D01*
X173077238Y-132413476D01*
X173267714Y-132365857D01*
X173601048Y-132365857D01*
X173791524Y-132413476D01*
X173886762Y-132508714D01*
X173934381Y-132603952D01*
X173934381Y-132794429D01*
X173886762Y-132889667D01*
X173791524Y-132984905D01*
X173601048Y-133032524D01*
X173267714Y-133032524D01*
X173077238Y-132984905D01*
X172982000Y-132889667D01*
X172934381Y-132794429D01*
X174029619Y-132175381D02*
X174029619Y-131413476D01*
X173886762Y-131223000D02*
X173934381Y-131080143D01*
X173934381Y-130842047D01*
X173886762Y-130746809D01*
X173839143Y-130699190D01*
X173743905Y-130651571D01*
X173648667Y-130651571D01*
X173553429Y-130699190D01*
X173505810Y-130746809D01*
X173458190Y-130842047D01*
X173410571Y-131032524D01*
X173362952Y-131127762D01*
X173315333Y-131175381D01*
X173220095Y-131223000D01*
X173124857Y-131223000D01*
X173029619Y-131175381D01*
X172982000Y-131127762D01*
X172934381Y-131032524D01*
X172934381Y-130794428D01*
X172982000Y-130651571D01*
X173839143Y-129651571D02*
X173886762Y-129699190D01*
X173934381Y-129842047D01*
X173934381Y-129937285D01*
X173886762Y-130080143D01*
X173791524Y-130175381D01*
X173696286Y-130223000D01*
X173505810Y-130270619D01*
X173362952Y-130270619D01*
X173172476Y-130223000D01*
X173077238Y-130175381D01*
X172982000Y-130080143D01*
X172934381Y-129937285D01*
X172934381Y-129842047D01*
X172982000Y-129699190D01*
X173029619Y-129651571D01*
X173934381Y-129223000D02*
X172934381Y-129223000D01*
X173934381Y-128651571D02*
X173362952Y-129080143D01*
X172934381Y-128651571D02*
X173505810Y-129223000D01*
X173648667Y-128270619D02*
X173648667Y-127794428D01*
X173934381Y-128365857D02*
X172934381Y-128032524D01*
X173934381Y-127699190D01*
X170394381Y-131524429D02*
X170394381Y-131333952D01*
X170442000Y-131238714D01*
X170537238Y-131143476D01*
X170727714Y-131095857D01*
X171061048Y-131095857D01*
X171251524Y-131143476D01*
X171346762Y-131238714D01*
X171394381Y-131333952D01*
X171394381Y-131524429D01*
X171346762Y-131619667D01*
X171251524Y-131714905D01*
X171061048Y-131762524D01*
X170727714Y-131762524D01*
X170537238Y-131714905D01*
X170442000Y-131619667D01*
X170394381Y-131524429D01*
X171489619Y-130905381D02*
X171489619Y-130143476D01*
X171394381Y-129333952D02*
X170918190Y-129667286D01*
X171394381Y-129905381D02*
X170394381Y-129905381D01*
X170394381Y-129524428D01*
X170442000Y-129429190D01*
X170489619Y-129381571D01*
X170584857Y-129333952D01*
X170727714Y-129333952D01*
X170822952Y-129381571D01*
X170870571Y-129429190D01*
X170918190Y-129524428D01*
X170918190Y-129905381D01*
X171346762Y-128953000D02*
X171394381Y-128810143D01*
X171394381Y-128572047D01*
X171346762Y-128476809D01*
X171299143Y-128429190D01*
X171203905Y-128381571D01*
X171108667Y-128381571D01*
X171013429Y-128429190D01*
X170965810Y-128476809D01*
X170918190Y-128572047D01*
X170870571Y-128762524D01*
X170822952Y-128857762D01*
X170775333Y-128905381D01*
X170680095Y-128953000D01*
X170584857Y-128953000D01*
X170489619Y-128905381D01*
X170442000Y-128857762D01*
X170394381Y-128762524D01*
X170394381Y-128524428D01*
X170442000Y-128381571D01*
X170394381Y-128095857D02*
X170394381Y-127524428D01*
X171394381Y-127810143D02*
X170394381Y-127810143D01*
X168330571Y-132984905D02*
X168330571Y-132651571D01*
X168854381Y-132508714D02*
X168854381Y-132984905D01*
X167854381Y-132984905D01*
X167854381Y-132508714D01*
X168949619Y-132318238D02*
X168949619Y-131556333D01*
X168806762Y-131365857D02*
X168854381Y-131223000D01*
X168854381Y-130984904D01*
X168806762Y-130889666D01*
X168759143Y-130842047D01*
X168663905Y-130794428D01*
X168568667Y-130794428D01*
X168473429Y-130842047D01*
X168425810Y-130889666D01*
X168378190Y-130984904D01*
X168330571Y-131175381D01*
X168282952Y-131270619D01*
X168235333Y-131318238D01*
X168140095Y-131365857D01*
X168044857Y-131365857D01*
X167949619Y-131318238D01*
X167902000Y-131270619D01*
X167854381Y-131175381D01*
X167854381Y-130937285D01*
X167902000Y-130794428D01*
X168759143Y-129794428D02*
X168806762Y-129842047D01*
X168854381Y-129984904D01*
X168854381Y-130080142D01*
X168806762Y-130223000D01*
X168711524Y-130318238D01*
X168616286Y-130365857D01*
X168425810Y-130413476D01*
X168282952Y-130413476D01*
X168092476Y-130365857D01*
X167997238Y-130318238D01*
X167902000Y-130223000D01*
X167854381Y-130080142D01*
X167854381Y-129984904D01*
X167902000Y-129842047D01*
X167949619Y-129794428D01*
X168854381Y-129365857D02*
X167854381Y-129365857D01*
X168854381Y-128794428D02*
X168282952Y-129223000D01*
X167854381Y-128794428D02*
X168425810Y-129365857D01*
X168568667Y-128413476D02*
X168568667Y-127937285D01*
X168854381Y-128508714D02*
X167854381Y-128175381D01*
X168854381Y-127842047D01*
X165790571Y-131714905D02*
X165790571Y-131381571D01*
X166314381Y-131238714D02*
X166314381Y-131714905D01*
X165314381Y-131714905D01*
X165314381Y-131238714D01*
X166409619Y-131048238D02*
X166409619Y-130286333D01*
X166314381Y-129476809D02*
X165838190Y-129810143D01*
X166314381Y-130048238D02*
X165314381Y-130048238D01*
X165314381Y-129667285D01*
X165362000Y-129572047D01*
X165409619Y-129524428D01*
X165504857Y-129476809D01*
X165647714Y-129476809D01*
X165742952Y-129524428D01*
X165790571Y-129572047D01*
X165838190Y-129667285D01*
X165838190Y-130048238D01*
X166266762Y-129095857D02*
X166314381Y-128953000D01*
X166314381Y-128714904D01*
X166266762Y-128619666D01*
X166219143Y-128572047D01*
X166123905Y-128524428D01*
X166028667Y-128524428D01*
X165933429Y-128572047D01*
X165885810Y-128619666D01*
X165838190Y-128714904D01*
X165790571Y-128905381D01*
X165742952Y-129000619D01*
X165695333Y-129048238D01*
X165600095Y-129095857D01*
X165504857Y-129095857D01*
X165409619Y-129048238D01*
X165362000Y-129000619D01*
X165314381Y-128905381D01*
X165314381Y-128667285D01*
X165362000Y-128524428D01*
X165314381Y-128238714D02*
X165314381Y-127667285D01*
X166314381Y-127953000D02*
X165314381Y-127953000D01*
X163774381Y-132984905D02*
X162774381Y-132984905D01*
X162774381Y-132603952D01*
X162822000Y-132508714D01*
X162869619Y-132461095D01*
X162964857Y-132413476D01*
X163107714Y-132413476D01*
X163202952Y-132461095D01*
X163250571Y-132508714D01*
X163298190Y-132603952D01*
X163298190Y-132984905D01*
X163869619Y-132223000D02*
X163869619Y-131461095D01*
X163726762Y-131270619D02*
X163774381Y-131127762D01*
X163774381Y-130889666D01*
X163726762Y-130794428D01*
X163679143Y-130746809D01*
X163583905Y-130699190D01*
X163488667Y-130699190D01*
X163393429Y-130746809D01*
X163345810Y-130794428D01*
X163298190Y-130889666D01*
X163250571Y-131080143D01*
X163202952Y-131175381D01*
X163155333Y-131223000D01*
X163060095Y-131270619D01*
X162964857Y-131270619D01*
X162869619Y-131223000D01*
X162822000Y-131175381D01*
X162774381Y-131080143D01*
X162774381Y-130842047D01*
X162822000Y-130699190D01*
X163679143Y-129699190D02*
X163726762Y-129746809D01*
X163774381Y-129889666D01*
X163774381Y-129984904D01*
X163726762Y-130127762D01*
X163631524Y-130223000D01*
X163536286Y-130270619D01*
X163345810Y-130318238D01*
X163202952Y-130318238D01*
X163012476Y-130270619D01*
X162917238Y-130223000D01*
X162822000Y-130127762D01*
X162774381Y-129984904D01*
X162774381Y-129889666D01*
X162822000Y-129746809D01*
X162869619Y-129699190D01*
X163774381Y-129270619D02*
X162774381Y-129270619D01*
X163774381Y-128699190D02*
X163202952Y-129127762D01*
X162774381Y-128699190D02*
X163345810Y-129270619D01*
X163488667Y-128318238D02*
X163488667Y-127842047D01*
X163774381Y-128413476D02*
X162774381Y-128080143D01*
X163774381Y-127746809D01*
X161234381Y-131714905D02*
X160234381Y-131714905D01*
X160234381Y-131333952D01*
X160282000Y-131238714D01*
X160329619Y-131191095D01*
X160424857Y-131143476D01*
X160567714Y-131143476D01*
X160662952Y-131191095D01*
X160710571Y-131238714D01*
X160758190Y-131333952D01*
X160758190Y-131714905D01*
X161329619Y-130953000D02*
X161329619Y-130191095D01*
X161234381Y-129381571D02*
X160758190Y-129714905D01*
X161234381Y-129953000D02*
X160234381Y-129953000D01*
X160234381Y-129572047D01*
X160282000Y-129476809D01*
X160329619Y-129429190D01*
X160424857Y-129381571D01*
X160567714Y-129381571D01*
X160662952Y-129429190D01*
X160710571Y-129476809D01*
X160758190Y-129572047D01*
X160758190Y-129953000D01*
X161186762Y-129000619D02*
X161234381Y-128857762D01*
X161234381Y-128619666D01*
X161186762Y-128524428D01*
X161139143Y-128476809D01*
X161043905Y-128429190D01*
X160948667Y-128429190D01*
X160853429Y-128476809D01*
X160805810Y-128524428D01*
X160758190Y-128619666D01*
X160710571Y-128810143D01*
X160662952Y-128905381D01*
X160615333Y-128953000D01*
X160520095Y-129000619D01*
X160424857Y-129000619D01*
X160329619Y-128953000D01*
X160282000Y-128905381D01*
X160234381Y-128810143D01*
X160234381Y-128572047D01*
X160282000Y-128429190D01*
X160234381Y-128143476D02*
X160234381Y-127572047D01*
X161234381Y-127857762D02*
X160234381Y-127857762D01*
X158599143Y-132413476D02*
X158646762Y-132461095D01*
X158694381Y-132603952D01*
X158694381Y-132699190D01*
X158646762Y-132842048D01*
X158551524Y-132937286D01*
X158456286Y-132984905D01*
X158265810Y-133032524D01*
X158122952Y-133032524D01*
X157932476Y-132984905D01*
X157837238Y-132937286D01*
X157742000Y-132842048D01*
X157694381Y-132699190D01*
X157694381Y-132603952D01*
X157742000Y-132461095D01*
X157789619Y-132413476D01*
X158789619Y-132223000D02*
X158789619Y-131461095D01*
X158646762Y-131270619D02*
X158694381Y-131127762D01*
X158694381Y-130889666D01*
X158646762Y-130794428D01*
X158599143Y-130746809D01*
X158503905Y-130699190D01*
X158408667Y-130699190D01*
X158313429Y-130746809D01*
X158265810Y-130794428D01*
X158218190Y-130889666D01*
X158170571Y-131080143D01*
X158122952Y-131175381D01*
X158075333Y-131223000D01*
X157980095Y-131270619D01*
X157884857Y-131270619D01*
X157789619Y-131223000D01*
X157742000Y-131175381D01*
X157694381Y-131080143D01*
X157694381Y-130842047D01*
X157742000Y-130699190D01*
X158599143Y-129699190D02*
X158646762Y-129746809D01*
X158694381Y-129889666D01*
X158694381Y-129984904D01*
X158646762Y-130127762D01*
X158551524Y-130223000D01*
X158456286Y-130270619D01*
X158265810Y-130318238D01*
X158122952Y-130318238D01*
X157932476Y-130270619D01*
X157837238Y-130223000D01*
X157742000Y-130127762D01*
X157694381Y-129984904D01*
X157694381Y-129889666D01*
X157742000Y-129746809D01*
X157789619Y-129699190D01*
X158694381Y-129270619D02*
X157694381Y-129270619D01*
X158694381Y-128699190D02*
X158122952Y-129127762D01*
X157694381Y-128699190D02*
X158265810Y-129270619D01*
X158408667Y-128318238D02*
X158408667Y-127842047D01*
X158694381Y-128413476D02*
X157694381Y-128080143D01*
X158694381Y-127746809D01*
X156059143Y-131174667D02*
X156106762Y-131222286D01*
X156154381Y-131365143D01*
X156154381Y-131460381D01*
X156106762Y-131603239D01*
X156011524Y-131698477D01*
X155916286Y-131746096D01*
X155725810Y-131793715D01*
X155582952Y-131793715D01*
X155392476Y-131746096D01*
X155297238Y-131698477D01*
X155202000Y-131603239D01*
X155154381Y-131460381D01*
X155154381Y-131365143D01*
X155202000Y-131222286D01*
X155249619Y-131174667D01*
X156249619Y-130984191D02*
X156249619Y-130222286D01*
X156154381Y-129412762D02*
X155678190Y-129746096D01*
X156154381Y-129984191D02*
X155154381Y-129984191D01*
X155154381Y-129603238D01*
X155202000Y-129508000D01*
X155249619Y-129460381D01*
X155344857Y-129412762D01*
X155487714Y-129412762D01*
X155582952Y-129460381D01*
X155630571Y-129508000D01*
X155678190Y-129603238D01*
X155678190Y-129984191D01*
X156106762Y-129031810D02*
X156154381Y-128888953D01*
X156154381Y-128650857D01*
X156106762Y-128555619D01*
X156059143Y-128508000D01*
X155963905Y-128460381D01*
X155868667Y-128460381D01*
X155773429Y-128508000D01*
X155725810Y-128555619D01*
X155678190Y-128650857D01*
X155630571Y-128841334D01*
X155582952Y-128936572D01*
X155535333Y-128984191D01*
X155440095Y-129031810D01*
X155344857Y-129031810D01*
X155249619Y-128984191D01*
X155202000Y-128936572D01*
X155154381Y-128841334D01*
X155154381Y-128603238D01*
X155202000Y-128460381D01*
X155154381Y-128174667D02*
X155154381Y-127603238D01*
X156154381Y-127888953D02*
X155154381Y-127888953D01*
X176379143Y-56213476D02*
X176426762Y-56261095D01*
X176474381Y-56403952D01*
X176474381Y-56499190D01*
X176426762Y-56642048D01*
X176331524Y-56737286D01*
X176236286Y-56784905D01*
X176045810Y-56832524D01*
X175902952Y-56832524D01*
X175712476Y-56784905D01*
X175617238Y-56737286D01*
X175522000Y-56642048D01*
X175474381Y-56499190D01*
X175474381Y-56403952D01*
X175522000Y-56261095D01*
X175569619Y-56213476D01*
X176188667Y-55832524D02*
X176188667Y-55356333D01*
X176474381Y-55927762D02*
X175474381Y-55594429D01*
X176474381Y-55261095D01*
X176474381Y-54927762D02*
X175474381Y-54927762D01*
X176474381Y-54356333D01*
X175474381Y-54356333D01*
X176474381Y-53880143D02*
X175474381Y-53880143D01*
X175950571Y-53880143D02*
X175950571Y-53308714D01*
X176474381Y-53308714D02*
X175474381Y-53308714D01*
X178919143Y-56117762D02*
X178966762Y-56165381D01*
X179014381Y-56308238D01*
X179014381Y-56403476D01*
X178966762Y-56546334D01*
X178871524Y-56641572D01*
X178776286Y-56689191D01*
X178585810Y-56736810D01*
X178442952Y-56736810D01*
X178252476Y-56689191D01*
X178157238Y-56641572D01*
X178062000Y-56546334D01*
X178014381Y-56403476D01*
X178014381Y-56308238D01*
X178062000Y-56165381D01*
X178109619Y-56117762D01*
X178728667Y-55736810D02*
X178728667Y-55260619D01*
X179014381Y-55832048D02*
X178014381Y-55498715D01*
X179014381Y-55165381D01*
X179014381Y-54832048D02*
X178014381Y-54832048D01*
X179014381Y-54260619D01*
X178014381Y-54260619D01*
X179014381Y-53308238D02*
X179014381Y-53784429D01*
X178014381Y-53784429D01*
X168854381Y-55943000D02*
X168854381Y-56419191D01*
X167854381Y-56419191D01*
X168854381Y-54847762D02*
X167854381Y-54847762D01*
X167854381Y-54466809D01*
X167902000Y-54371571D01*
X167949619Y-54323952D01*
X168044857Y-54276333D01*
X168187714Y-54276333D01*
X168282952Y-54323952D01*
X168330571Y-54371571D01*
X168378190Y-54466809D01*
X168378190Y-54847762D01*
X167854381Y-53943000D02*
X168854381Y-53704905D01*
X168140095Y-53514428D01*
X168854381Y-53323952D01*
X167854381Y-53085857D01*
X168854381Y-52133476D02*
X168378190Y-52466810D01*
X168854381Y-52704905D02*
X167854381Y-52704905D01*
X167854381Y-52323952D01*
X167902000Y-52228714D01*
X167949619Y-52181095D01*
X168044857Y-52133476D01*
X168187714Y-52133476D01*
X168282952Y-52181095D01*
X168330571Y-52228714D01*
X168378190Y-52323952D01*
X168378190Y-52704905D01*
X166314381Y-56371809D02*
X166314381Y-56943238D01*
X166314381Y-56657524D02*
X165314381Y-56657524D01*
X165457238Y-56752762D01*
X165552476Y-56848000D01*
X165600095Y-56943238D01*
X165409619Y-55990857D02*
X165362000Y-55943238D01*
X165314381Y-55848000D01*
X165314381Y-55609904D01*
X165362000Y-55514666D01*
X165409619Y-55467047D01*
X165504857Y-55419428D01*
X165600095Y-55419428D01*
X165742952Y-55467047D01*
X166314381Y-56038476D01*
X166314381Y-55419428D01*
X165314381Y-55133714D02*
X166314381Y-54800381D01*
X165314381Y-54467047D01*
X166314381Y-54133714D02*
X165314381Y-54133714D01*
X166314381Y-53562285D01*
X165314381Y-53562285D01*
X166219143Y-52514666D02*
X166266762Y-52562285D01*
X166314381Y-52705142D01*
X166314381Y-52800380D01*
X166266762Y-52943238D01*
X166171524Y-53038476D01*
X166076286Y-53086095D01*
X165885810Y-53133714D01*
X165742952Y-53133714D01*
X165552476Y-53086095D01*
X165457238Y-53038476D01*
X165362000Y-52943238D01*
X165314381Y-52800380D01*
X165314381Y-52705142D01*
X165362000Y-52562285D01*
X165409619Y-52514666D01*
X166314381Y-51514666D02*
X165838190Y-51848000D01*
X166314381Y-52086095D02*
X165314381Y-52086095D01*
X165314381Y-51705142D01*
X165362000Y-51609904D01*
X165409619Y-51562285D01*
X165504857Y-51514666D01*
X165647714Y-51514666D01*
X165742952Y-51562285D01*
X165790571Y-51609904D01*
X165838190Y-51705142D01*
X165838190Y-52086095D01*
X165314381Y-51228952D02*
X165314381Y-50657523D01*
X166314381Y-50943238D02*
X165314381Y-50943238D01*
X160234381Y-56990857D02*
X160234381Y-56371809D01*
X160615333Y-56705143D01*
X160615333Y-56562285D01*
X160662952Y-56467047D01*
X160710571Y-56419428D01*
X160805810Y-56371809D01*
X161043905Y-56371809D01*
X161139143Y-56419428D01*
X161186762Y-56467047D01*
X161234381Y-56562285D01*
X161234381Y-56848000D01*
X161186762Y-56943238D01*
X161139143Y-56990857D01*
X160234381Y-56086095D02*
X161234381Y-55752762D01*
X160234381Y-55419428D01*
X160234381Y-55181333D02*
X160234381Y-54562285D01*
X160615333Y-54895619D01*
X160615333Y-54752761D01*
X160662952Y-54657523D01*
X160710571Y-54609904D01*
X160805810Y-54562285D01*
X161043905Y-54562285D01*
X161139143Y-54609904D01*
X161186762Y-54657523D01*
X161234381Y-54752761D01*
X161234381Y-55038476D01*
X161186762Y-55133714D01*
X161139143Y-55181333D01*
X161234381Y-54133714D02*
X160234381Y-54133714D01*
X161234381Y-53562285D01*
X160234381Y-53562285D01*
X161139143Y-52514666D02*
X161186762Y-52562285D01*
X161234381Y-52705142D01*
X161234381Y-52800380D01*
X161186762Y-52943238D01*
X161091524Y-53038476D01*
X160996286Y-53086095D01*
X160805810Y-53133714D01*
X160662952Y-53133714D01*
X160472476Y-53086095D01*
X160377238Y-53038476D01*
X160282000Y-52943238D01*
X160234381Y-52800380D01*
X160234381Y-52705142D01*
X160282000Y-52562285D01*
X160329619Y-52514666D01*
X161234381Y-51514666D02*
X160758190Y-51848000D01*
X161234381Y-52086095D02*
X160234381Y-52086095D01*
X160234381Y-51705142D01*
X160282000Y-51609904D01*
X160329619Y-51562285D01*
X160424857Y-51514666D01*
X160567714Y-51514666D01*
X160662952Y-51562285D01*
X160710571Y-51609904D01*
X160758190Y-51705142D01*
X160758190Y-52086095D01*
X160234381Y-51228952D02*
X160234381Y-50657523D01*
X161234381Y-50943238D02*
X160234381Y-50943238D01*
X163774381Y-56228952D02*
X163774381Y-56800381D01*
X163774381Y-56514667D02*
X162774381Y-56514667D01*
X162917238Y-56609905D01*
X163012476Y-56705143D01*
X163060095Y-56800381D01*
X162869619Y-55848000D02*
X162822000Y-55800381D01*
X162774381Y-55705143D01*
X162774381Y-55467047D01*
X162822000Y-55371809D01*
X162869619Y-55324190D01*
X162964857Y-55276571D01*
X163060095Y-55276571D01*
X163202952Y-55324190D01*
X163774381Y-55895619D01*
X163774381Y-55276571D01*
X162774381Y-54990857D02*
X163774381Y-54657524D01*
X162774381Y-54324190D01*
X163679143Y-52657523D02*
X163726762Y-52705142D01*
X163774381Y-52847999D01*
X163774381Y-52943237D01*
X163726762Y-53086095D01*
X163631524Y-53181333D01*
X163536286Y-53228952D01*
X163345810Y-53276571D01*
X163202952Y-53276571D01*
X163012476Y-53228952D01*
X162917238Y-53181333D01*
X162822000Y-53086095D01*
X162774381Y-52943237D01*
X162774381Y-52847999D01*
X162822000Y-52705142D01*
X162869619Y-52657523D01*
X163774381Y-51657523D02*
X163298190Y-51990857D01*
X163774381Y-52228952D02*
X162774381Y-52228952D01*
X162774381Y-51847999D01*
X162822000Y-51752761D01*
X162869619Y-51705142D01*
X162964857Y-51657523D01*
X163107714Y-51657523D01*
X163202952Y-51705142D01*
X163250571Y-51752761D01*
X163298190Y-51847999D01*
X163298190Y-52228952D01*
X162774381Y-51371809D02*
X162774381Y-50800380D01*
X163774381Y-51086095D02*
X162774381Y-51086095D01*
X168854381Y-66309905D02*
X167854381Y-66309905D01*
X167854381Y-66071810D01*
X167902000Y-65928952D01*
X167997238Y-65833714D01*
X168092476Y-65786095D01*
X168282952Y-65738476D01*
X168425810Y-65738476D01*
X168616286Y-65786095D01*
X168711524Y-65833714D01*
X168806762Y-65928952D01*
X168854381Y-66071810D01*
X168854381Y-66309905D01*
X168854381Y-65309905D02*
X167854381Y-65309905D01*
X167854381Y-64928952D01*
X167902000Y-64833714D01*
X167949619Y-64786095D01*
X168044857Y-64738476D01*
X168187714Y-64738476D01*
X168282952Y-64786095D01*
X168330571Y-64833714D01*
X168378190Y-64928952D01*
X168378190Y-65309905D01*
X168854381Y-63833714D02*
X168854381Y-64309905D01*
X167854381Y-64309905D01*
X168378190Y-63309905D02*
X168854381Y-63309905D01*
X167854381Y-63643238D02*
X168378190Y-63309905D01*
X167854381Y-62976571D01*
X167854381Y-62738476D02*
X167854381Y-62119428D01*
X168235333Y-62452762D01*
X168235333Y-62309904D01*
X168282952Y-62214666D01*
X168330571Y-62167047D01*
X168425810Y-62119428D01*
X168663905Y-62119428D01*
X168759143Y-62167047D01*
X168806762Y-62214666D01*
X168854381Y-62309904D01*
X168854381Y-62595619D01*
X168806762Y-62690857D01*
X168759143Y-62738476D01*
X166314381Y-66309905D02*
X165314381Y-66309905D01*
X165314381Y-66071810D01*
X165362000Y-65928952D01*
X165457238Y-65833714D01*
X165552476Y-65786095D01*
X165742952Y-65738476D01*
X165885810Y-65738476D01*
X166076286Y-65786095D01*
X166171524Y-65833714D01*
X166266762Y-65928952D01*
X166314381Y-66071810D01*
X166314381Y-66309905D01*
X166314381Y-65309905D02*
X165314381Y-65309905D01*
X165314381Y-64928952D01*
X165362000Y-64833714D01*
X165409619Y-64786095D01*
X165504857Y-64738476D01*
X165647714Y-64738476D01*
X165742952Y-64786095D01*
X165790571Y-64833714D01*
X165838190Y-64928952D01*
X165838190Y-65309905D01*
X166314381Y-63833714D02*
X166314381Y-64309905D01*
X165314381Y-64309905D01*
X165838190Y-63309905D02*
X166314381Y-63309905D01*
X165314381Y-63643238D02*
X165838190Y-63309905D01*
X165314381Y-62976571D01*
X165409619Y-62690857D02*
X165362000Y-62643238D01*
X165314381Y-62548000D01*
X165314381Y-62309904D01*
X165362000Y-62214666D01*
X165409619Y-62167047D01*
X165504857Y-62119428D01*
X165600095Y-62119428D01*
X165742952Y-62167047D01*
X166314381Y-62738476D01*
X166314381Y-62119428D01*
X163774381Y-66309905D02*
X162774381Y-66309905D01*
X162774381Y-66071810D01*
X162822000Y-65928952D01*
X162917238Y-65833714D01*
X163012476Y-65786095D01*
X163202952Y-65738476D01*
X163345810Y-65738476D01*
X163536286Y-65786095D01*
X163631524Y-65833714D01*
X163726762Y-65928952D01*
X163774381Y-66071810D01*
X163774381Y-66309905D01*
X163774381Y-65309905D02*
X162774381Y-65309905D01*
X162774381Y-64928952D01*
X162822000Y-64833714D01*
X162869619Y-64786095D01*
X162964857Y-64738476D01*
X163107714Y-64738476D01*
X163202952Y-64786095D01*
X163250571Y-64833714D01*
X163298190Y-64928952D01*
X163298190Y-65309905D01*
X163774381Y-63833714D02*
X163774381Y-64309905D01*
X162774381Y-64309905D01*
X163298190Y-63309905D02*
X163774381Y-63309905D01*
X162774381Y-63643238D02*
X163298190Y-63309905D01*
X162774381Y-62976571D01*
X163774381Y-62119428D02*
X163774381Y-62690857D01*
X163774381Y-62405143D02*
X162774381Y-62405143D01*
X162917238Y-62500381D01*
X163012476Y-62595619D01*
X163060095Y-62690857D01*
X161234381Y-65103476D02*
X160758190Y-65436810D01*
X161234381Y-65674905D02*
X160234381Y-65674905D01*
X160234381Y-65293952D01*
X160282000Y-65198714D01*
X160329619Y-65151095D01*
X160424857Y-65103476D01*
X160567714Y-65103476D01*
X160662952Y-65151095D01*
X160710571Y-65198714D01*
X160758190Y-65293952D01*
X160758190Y-65674905D01*
X160710571Y-64341571D02*
X160758190Y-64198714D01*
X160805810Y-64151095D01*
X160901048Y-64103476D01*
X161043905Y-64103476D01*
X161139143Y-64151095D01*
X161186762Y-64198714D01*
X161234381Y-64293952D01*
X161234381Y-64674905D01*
X160234381Y-64674905D01*
X160234381Y-64341571D01*
X160282000Y-64246333D01*
X160329619Y-64198714D01*
X160424857Y-64151095D01*
X160520095Y-64151095D01*
X160615333Y-64198714D01*
X160662952Y-64246333D01*
X160710571Y-64341571D01*
X160710571Y-64674905D01*
X160567714Y-63246333D02*
X161234381Y-63246333D01*
X160186762Y-63484429D02*
X160901048Y-63722524D01*
X160901048Y-63103476D01*
X160710571Y-62389190D02*
X160710571Y-62722524D01*
X161234381Y-62722524D02*
X160234381Y-62722524D01*
X160234381Y-62246333D01*
X158170571Y-64706571D02*
X158218190Y-64563714D01*
X158265810Y-64516095D01*
X158361048Y-64468476D01*
X158503905Y-64468476D01*
X158599143Y-64516095D01*
X158646762Y-64563714D01*
X158694381Y-64658952D01*
X158694381Y-65039905D01*
X157694381Y-65039905D01*
X157694381Y-64706571D01*
X157742000Y-64611333D01*
X157789619Y-64563714D01*
X157884857Y-64516095D01*
X157980095Y-64516095D01*
X158075333Y-64563714D01*
X158122952Y-64611333D01*
X158170571Y-64706571D01*
X158170571Y-65039905D01*
X158408667Y-64087524D02*
X158408667Y-63611333D01*
X158694381Y-64182762D02*
X157694381Y-63849429D01*
X158694381Y-63516095D01*
X157694381Y-63325619D02*
X157694381Y-62754190D01*
X158694381Y-63039905D02*
X157694381Y-63039905D01*
X157694381Y-62563714D02*
X157694381Y-61992285D01*
X158694381Y-62278000D02*
X157694381Y-62278000D01*
X155154381Y-64547762D02*
X156154381Y-64214429D01*
X155154381Y-63881095D01*
X156154381Y-63547762D02*
X155154381Y-63547762D01*
X156154381Y-63071572D02*
X155154381Y-63071572D01*
X156154381Y-62500143D01*
X155154381Y-62500143D01*
X155154381Y-56467048D02*
X155154381Y-55848000D01*
X155535333Y-56181334D01*
X155535333Y-56038476D01*
X155582952Y-55943238D01*
X155630571Y-55895619D01*
X155725810Y-55848000D01*
X155963905Y-55848000D01*
X156059143Y-55895619D01*
X156106762Y-55943238D01*
X156154381Y-56038476D01*
X156154381Y-56324191D01*
X156106762Y-56419429D01*
X156059143Y-56467048D01*
X155154381Y-55562286D02*
X156154381Y-55228953D01*
X155154381Y-54895619D01*
X155154381Y-54657524D02*
X155154381Y-54038476D01*
X155535333Y-54371810D01*
X155535333Y-54228952D01*
X155582952Y-54133714D01*
X155630571Y-54086095D01*
X155725810Y-54038476D01*
X155963905Y-54038476D01*
X156059143Y-54086095D01*
X156106762Y-54133714D01*
X156154381Y-54228952D01*
X156154381Y-54514667D01*
X156106762Y-54609905D01*
X156059143Y-54657524D01*
X157742000Y-56133714D02*
X157694381Y-56228952D01*
X157694381Y-56371809D01*
X157742000Y-56514667D01*
X157837238Y-56609905D01*
X157932476Y-56657524D01*
X158122952Y-56705143D01*
X158265810Y-56705143D01*
X158456286Y-56657524D01*
X158551524Y-56609905D01*
X158646762Y-56514667D01*
X158694381Y-56371809D01*
X158694381Y-56276571D01*
X158646762Y-56133714D01*
X158599143Y-56086095D01*
X158265810Y-56086095D01*
X158265810Y-56276571D01*
X158694381Y-55657524D02*
X157694381Y-55657524D01*
X158694381Y-55086095D01*
X157694381Y-55086095D01*
X158694381Y-54609905D02*
X157694381Y-54609905D01*
X157694381Y-54371810D01*
X157742000Y-54228952D01*
X157837238Y-54133714D01*
X157932476Y-54086095D01*
X158122952Y-54038476D01*
X158265810Y-54038476D01*
X158456286Y-54086095D01*
X158551524Y-54133714D01*
X158646762Y-54228952D01*
X158694381Y-54371810D01*
X158694381Y-54609905D01*
X196552381Y-70533333D02*
X195552381Y-70533333D01*
X195552381Y-70152380D01*
X195600000Y-70057142D01*
X195647619Y-70009523D01*
X195742857Y-69961904D01*
X195885714Y-69961904D01*
X195980952Y-70009523D01*
X196028571Y-70057142D01*
X196076190Y-70152380D01*
X196076190Y-70533333D01*
X195552381Y-69628571D02*
X196552381Y-69390476D01*
X195838095Y-69199999D01*
X196552381Y-69009523D01*
X195552381Y-68771428D01*
X196552381Y-67819047D02*
X196076190Y-68152381D01*
X196552381Y-68390476D02*
X195552381Y-68390476D01*
X195552381Y-68009523D01*
X195600000Y-67914285D01*
X195647619Y-67866666D01*
X195742857Y-67819047D01*
X195885714Y-67819047D01*
X195980952Y-67866666D01*
X196028571Y-67914285D01*
X196076190Y-68009523D01*
X196076190Y-68390476D01*
X164142000Y-90863000D02*
X164142000Y-91088000D01*
X171392000Y-90863000D02*
X171392000Y-91188000D01*
X171392000Y-98113000D02*
X171392000Y-97788000D01*
X164142000Y-98113000D02*
X164142000Y-97788000D01*
X164142000Y-90863000D02*
X164467000Y-90863000D01*
X164142000Y-98113000D02*
X164467000Y-98113000D01*
X171392000Y-98113000D02*
X171067000Y-98113000D01*
X171392000Y-90863000D02*
X171067000Y-90863000D01*
X164142000Y-91088000D02*
X162717000Y-91088000D01*
X171950000Y-73065000D02*
X170950000Y-73065000D01*
X170950000Y-71715000D02*
X171950000Y-71715000D01*
D12*
X156972000Y-122368000D02*
X179892000Y-122368000D01*
X179892000Y-122368000D02*
X179892000Y-127568000D01*
X179892000Y-127568000D02*
X154372000Y-127568000D01*
X154372000Y-127568000D02*
X154372000Y-124968000D01*
X154372000Y-124968000D02*
X156972000Y-124968000D01*
X156972000Y-124968000D02*
X156972000Y-122368000D01*
X155702000Y-122368000D02*
X154372000Y-122368000D01*
X154372000Y-122368000D02*
X154372000Y-123638000D01*
X156972000Y-56963000D02*
X179892000Y-56963000D01*
X179892000Y-56963000D02*
X179892000Y-62163000D01*
X179892000Y-62163000D02*
X154372000Y-62163000D01*
X154372000Y-62163000D02*
X154372000Y-59563000D01*
X154372000Y-59563000D02*
X156972000Y-59563000D01*
X156972000Y-59563000D02*
X156972000Y-56963000D01*
X155702000Y-56963000D02*
X154372000Y-56963000D01*
X154372000Y-56963000D02*
X154372000Y-58233000D01*
X183287000Y-101723000D02*
X183287000Y-85983000D01*
X183287000Y-85983000D02*
X192887000Y-85983000D01*
X192887000Y-85983000D02*
X192887000Y-101723000D01*
X192887000Y-101723000D02*
X183287000Y-101723000D01*
D11*
X184887000Y-80493000D02*
X184637000Y-80493000D01*
X184637000Y-80493000D02*
X184637000Y-74193000D01*
X184637000Y-74193000D02*
X184887000Y-74193000D01*
X189387000Y-80493000D02*
X186787000Y-80493000D01*
X191287000Y-74193000D02*
X191537000Y-74193000D01*
X191537000Y-74193000D02*
X191537000Y-80493000D01*
X191537000Y-80493000D02*
X191287000Y-80493000D01*
X186787000Y-74193000D02*
X189387000Y-74193000D01*
X189737000Y-77343000D02*
G75*
G03X189737000Y-77343000I-1650000J0D01*
G01*
D12*
X185487000Y-116713000D02*
X185487000Y-109033000D01*
X185487000Y-109033000D02*
X190687000Y-109033000D01*
X190687000Y-109033000D02*
X190687000Y-119313000D01*
X190687000Y-119313000D02*
X188087000Y-119313000D01*
X188087000Y-119313000D02*
X188087000Y-116713000D01*
X188087000Y-116713000D02*
X185487000Y-116713000D01*
X185487000Y-117983000D02*
X185487000Y-119313000D01*
X185487000Y-119313000D02*
X186757000Y-119313000D01*
D11*
X176337000Y-96458000D02*
X175637000Y-96458000D01*
X175637000Y-95258000D02*
X176337000Y-95258000D01*
X160182000Y-95473000D02*
X160182000Y-94773000D01*
X161382000Y-94773000D02*
X161382000Y-95473000D01*
X175737000Y-94453000D02*
X175037000Y-94453000D01*
X175037000Y-93253000D02*
X175737000Y-93253000D01*
X163357000Y-76423000D02*
X163357000Y-75723000D01*
X164557000Y-75723000D02*
X164557000Y-76423000D01*
X162017000Y-104933000D02*
X162017000Y-105633000D01*
X160817000Y-105633000D02*
X160817000Y-104933000D01*
X169707000Y-105633000D02*
X169707000Y-104933000D01*
X170907000Y-104933000D02*
X170907000Y-105633000D01*
X191092000Y-67268000D02*
X189192000Y-67268000D01*
X191092000Y-68368000D02*
X189192000Y-68368000D01*
X190192000Y-67818000D02*
X189742000Y-67818000D01*
X190242000Y-68068000D02*
X190242000Y-67568000D01*
X190242000Y-67818000D02*
X189992000Y-68068000D01*
X189992000Y-68068000D02*
X189992000Y-67568000D01*
X189992000Y-67568000D02*
X190242000Y-67818000D01*
D12*
X120142000Y-56963000D02*
X137982000Y-56963000D01*
X137982000Y-56963000D02*
X137982000Y-62163000D01*
X137982000Y-62163000D02*
X117542000Y-62163000D01*
X117542000Y-62163000D02*
X117542000Y-59563000D01*
X117542000Y-59563000D02*
X120142000Y-59563000D01*
X120142000Y-59563000D02*
X120142000Y-56963000D01*
X118872000Y-56963000D02*
X117542000Y-56963000D01*
X117542000Y-56963000D02*
X117542000Y-58233000D01*
D11*
X168537000Y-79843000D02*
X169537000Y-79843000D01*
X169537000Y-81193000D02*
X168537000Y-81193000D01*
X163707000Y-88813000D02*
X162707000Y-88813000D01*
X162707000Y-87463000D02*
X163707000Y-87463000D01*
X186682000Y-68493000D02*
X185682000Y-68493000D01*
X185682000Y-67143000D02*
X186682000Y-67143000D01*
X190032000Y-121928000D02*
X190032000Y-122928000D01*
X188682000Y-122928000D02*
X188682000Y-121928000D01*
X166962000Y-73498000D02*
X166962000Y-73548000D01*
X171112000Y-73498000D02*
X171112000Y-73643000D01*
X171112000Y-78648000D02*
X171112000Y-78503000D01*
X166962000Y-78648000D02*
X166962000Y-78503000D01*
X166962000Y-73498000D02*
X171112000Y-73498000D01*
X166962000Y-78648000D02*
X171112000Y-78648000D01*
X166962000Y-73548000D02*
X165562000Y-73548000D01*
D12*
X162762000Y-105683000D02*
X163162000Y-105683000D01*
X163162000Y-105683000D02*
X163162000Y-104883000D01*
X168562000Y-104883000D02*
X168562000Y-105683000D01*
X164962000Y-103483000D02*
X166762000Y-103483000D01*
X166762000Y-107083000D02*
X164962000Y-107083000D01*
X164962000Y-107083000D02*
X164962000Y-107323000D01*
X136500000Y-107150000D02*
X136500000Y-107850000D01*
X135300000Y-107850000D02*
X135300000Y-107150000D01*
X119300000Y-92450000D02*
X119300000Y-91750000D01*
X120500000Y-91750000D02*
X120500000Y-92450000D01*
X191300000Y-65500000D02*
X191300000Y-64500000D01*
X191300000Y-64500000D02*
X189200000Y-64500000D01*
X191300000Y-65500000D02*
X189200000Y-65500000D01*
X191300000Y-62500000D02*
X191300000Y-61500000D01*
X191300000Y-61500000D02*
X189200000Y-61500000D01*
X191300000Y-62500000D02*
X189200000Y-62500000D01*
X191300000Y-59500000D02*
X191300000Y-58500000D01*
X191300000Y-58500000D02*
X189200000Y-58500000D01*
X191300000Y-59500000D02*
X189200000Y-59500000D01*
D11*
X125106200Y-86643000D02*
X125106200Y-86893000D01*
X132856200Y-86643000D02*
X132856200Y-86978000D01*
X132856200Y-99793000D02*
X132856200Y-99458000D01*
X125106200Y-99793000D02*
X125106200Y-99458000D01*
X125106200Y-86643000D02*
X132856200Y-86643000D01*
X125106200Y-99793000D02*
X132856200Y-99793000D01*
X125106200Y-86893000D02*
X123306200Y-86893000D01*
D12*
X186750000Y-65680000D02*
X185750000Y-65680000D01*
X185750000Y-64320000D02*
X186750000Y-64320000D01*
X186750000Y-62680000D02*
X185750000Y-62680000D01*
X185750000Y-61320000D02*
X186750000Y-61320000D01*
X186750000Y-59680000D02*
X185750000Y-59680000D01*
X185750000Y-58320000D02*
X186750000Y-58320000D01*
D11*
X127336400Y-107715800D02*
X127336400Y-107765800D01*
X131486400Y-107715800D02*
X131486400Y-107860800D01*
X131486400Y-112865800D02*
X131486400Y-112720800D01*
X127336400Y-112865800D02*
X127336400Y-112720800D01*
X127336400Y-107715800D02*
X131486400Y-107715800D01*
X127336400Y-112865800D02*
X131486400Y-112865800D01*
X127336400Y-107765800D02*
X125936400Y-107765800D01*
X166243095Y-87717381D02*
X166243095Y-88526905D01*
X166290714Y-88622143D01*
X166338333Y-88669762D01*
X166433571Y-88717381D01*
X166624048Y-88717381D01*
X166719286Y-88669762D01*
X166766905Y-88622143D01*
X166814524Y-88526905D01*
X166814524Y-87717381D01*
X167243095Y-87812619D02*
X167290714Y-87765000D01*
X167385952Y-87717381D01*
X167624048Y-87717381D01*
X167719286Y-87765000D01*
X167766905Y-87812619D01*
X167814524Y-87907857D01*
X167814524Y-88003095D01*
X167766905Y-88145952D01*
X167195476Y-88717381D01*
X167814524Y-88717381D01*
X171283334Y-70942381D02*
X170950000Y-70466190D01*
X170711905Y-70942381D02*
X170711905Y-69942381D01*
X171092858Y-69942381D01*
X171188096Y-69990000D01*
X171235715Y-70037619D01*
X171283334Y-70132857D01*
X171283334Y-70275714D01*
X171235715Y-70370952D01*
X171188096Y-70418571D01*
X171092858Y-70466190D01*
X170711905Y-70466190D01*
X172188096Y-69942381D02*
X171711905Y-69942381D01*
X171664286Y-70418571D01*
X171711905Y-70370952D01*
X171807143Y-70323333D01*
X172045239Y-70323333D01*
X172140477Y-70370952D01*
X172188096Y-70418571D01*
X172235715Y-70513810D01*
X172235715Y-70751905D01*
X172188096Y-70847143D01*
X172140477Y-70894762D01*
X172045239Y-70942381D01*
X171807143Y-70942381D01*
X171711905Y-70894762D01*
X171664286Y-70847143D01*
X152312715Y-124468000D02*
X152217477Y-124420381D01*
X152074620Y-124420381D01*
X151931762Y-124468000D01*
X151836524Y-124563238D01*
X151788905Y-124658476D01*
X151741286Y-124848952D01*
X151741286Y-124991810D01*
X151788905Y-125182286D01*
X151836524Y-125277524D01*
X151931762Y-125372762D01*
X152074620Y-125420381D01*
X152169858Y-125420381D01*
X152312715Y-125372762D01*
X152360334Y-125325143D01*
X152360334Y-124991810D01*
X152169858Y-124991810D01*
X152741286Y-124515619D02*
X152788905Y-124468000D01*
X152884143Y-124420381D01*
X153122239Y-124420381D01*
X153217477Y-124468000D01*
X153265096Y-124515619D01*
X153312715Y-124610857D01*
X153312715Y-124706095D01*
X153265096Y-124848952D01*
X152693667Y-125420381D01*
X153312715Y-125420381D01*
X153157715Y-59063000D02*
X153062477Y-59015381D01*
X152919620Y-59015381D01*
X152776762Y-59063000D01*
X152681524Y-59158238D01*
X152633905Y-59253476D01*
X152586286Y-59443952D01*
X152586286Y-59586810D01*
X152633905Y-59777286D01*
X152681524Y-59872524D01*
X152776762Y-59967762D01*
X152919620Y-60015381D01*
X153014858Y-60015381D01*
X153157715Y-59967762D01*
X153205334Y-59920143D01*
X153205334Y-59586810D01*
X153014858Y-59586810D01*
X154157715Y-60015381D02*
X153586286Y-60015381D01*
X153872000Y-60015381D02*
X153872000Y-59015381D01*
X153776762Y-59158238D01*
X153681524Y-59253476D01*
X153586286Y-59301095D01*
X181523667Y-92845381D02*
X181523667Y-93559667D01*
X181476047Y-93702524D01*
X181380809Y-93797762D01*
X181237952Y-93845381D01*
X181142714Y-93845381D01*
X181904619Y-92845381D02*
X182523667Y-92845381D01*
X182190333Y-93226333D01*
X182333191Y-93226333D01*
X182428429Y-93273952D01*
X182476048Y-93321571D01*
X182523667Y-93416810D01*
X182523667Y-93654905D01*
X182476048Y-93750143D01*
X182428429Y-93797762D01*
X182333191Y-93845381D01*
X182047476Y-93845381D01*
X181952238Y-93797762D01*
X181904619Y-93750143D01*
D12*
X191529381Y-96087285D02*
X191529381Y-96658714D01*
X191529381Y-96373000D02*
X190529381Y-96373000D01*
X190672238Y-96468238D01*
X190767476Y-96563476D01*
X190815095Y-96658714D01*
D11*
X186753667Y-83462762D02*
X186896524Y-83510381D01*
X187134620Y-83510381D01*
X187229858Y-83462762D01*
X187277477Y-83415143D01*
X187325096Y-83319905D01*
X187325096Y-83224667D01*
X187277477Y-83129429D01*
X187229858Y-83081810D01*
X187134620Y-83034190D01*
X186944143Y-82986571D01*
X186848905Y-82938952D01*
X186801286Y-82891333D01*
X186753667Y-82796095D01*
X186753667Y-82700857D01*
X186801286Y-82605619D01*
X186848905Y-82558000D01*
X186944143Y-82510381D01*
X187182239Y-82510381D01*
X187325096Y-82558000D01*
X187658429Y-82510381D02*
X187896524Y-83510381D01*
X188087001Y-82796095D01*
X188277477Y-83510381D01*
X188515572Y-82510381D01*
X189420334Y-83510381D02*
X188848905Y-83510381D01*
X189134619Y-83510381D02*
X189134619Y-82510381D01*
X189039381Y-82653238D01*
X188944143Y-82748476D01*
X188848905Y-82796095D01*
X187753667Y-107275381D02*
X187753667Y-107989667D01*
X187706047Y-108132524D01*
X187610809Y-108227762D01*
X187467952Y-108275381D01*
X187372714Y-108275381D01*
X188753667Y-108275381D02*
X188182238Y-108275381D01*
X188467952Y-108275381D02*
X188467952Y-107275381D01*
X188372714Y-107418238D01*
X188277476Y-107513476D01*
X188182238Y-107561095D01*
X177090334Y-98115143D02*
X177042715Y-98162762D01*
X176899858Y-98210381D01*
X176804620Y-98210381D01*
X176661762Y-98162762D01*
X176566524Y-98067524D01*
X176518905Y-97972286D01*
X176471286Y-97781810D01*
X176471286Y-97638952D01*
X176518905Y-97448476D01*
X176566524Y-97353238D01*
X176661762Y-97258000D01*
X176804620Y-97210381D01*
X176899858Y-97210381D01*
X177042715Y-97258000D01*
X177090334Y-97305619D01*
X178042715Y-98210381D02*
X177471286Y-98210381D01*
X177757000Y-98210381D02*
X177757000Y-97210381D01*
X177661762Y-97353238D01*
X177566524Y-97448476D01*
X177471286Y-97496095D01*
X158075334Y-95480143D02*
X158027715Y-95527762D01*
X157884858Y-95575381D01*
X157789620Y-95575381D01*
X157646762Y-95527762D01*
X157551524Y-95432524D01*
X157503905Y-95337286D01*
X157456286Y-95146810D01*
X157456286Y-95003952D01*
X157503905Y-94813476D01*
X157551524Y-94718238D01*
X157646762Y-94623000D01*
X157789620Y-94575381D01*
X157884858Y-94575381D01*
X158027715Y-94623000D01*
X158075334Y-94670619D01*
X158456286Y-94670619D02*
X158503905Y-94623000D01*
X158599143Y-94575381D01*
X158837239Y-94575381D01*
X158932477Y-94623000D01*
X158980096Y-94670619D01*
X159027715Y-94765857D01*
X159027715Y-94861095D01*
X158980096Y-95003952D01*
X158408667Y-95575381D01*
X159027715Y-95575381D01*
X176490334Y-92940143D02*
X176442715Y-92987762D01*
X176299858Y-93035381D01*
X176204620Y-93035381D01*
X176061762Y-92987762D01*
X175966524Y-92892524D01*
X175918905Y-92797286D01*
X175871286Y-92606810D01*
X175871286Y-92463952D01*
X175918905Y-92273476D01*
X175966524Y-92178238D01*
X176061762Y-92083000D01*
X176204620Y-92035381D01*
X176299858Y-92035381D01*
X176442715Y-92083000D01*
X176490334Y-92130619D01*
X176823667Y-92035381D02*
X177442715Y-92035381D01*
X177109381Y-92416333D01*
X177252239Y-92416333D01*
X177347477Y-92463952D01*
X177395096Y-92511571D01*
X177442715Y-92606810D01*
X177442715Y-92844905D01*
X177395096Y-92940143D01*
X177347477Y-92987762D01*
X177252239Y-93035381D01*
X176966524Y-93035381D01*
X176871286Y-92987762D01*
X176823667Y-92940143D01*
X162393334Y-78462143D02*
X162345715Y-78509762D01*
X162202858Y-78557381D01*
X162107620Y-78557381D01*
X161964762Y-78509762D01*
X161869524Y-78414524D01*
X161821905Y-78319286D01*
X161774286Y-78128810D01*
X161774286Y-77985952D01*
X161821905Y-77795476D01*
X161869524Y-77700238D01*
X161964762Y-77605000D01*
X162107620Y-77557381D01*
X162202858Y-77557381D01*
X162345715Y-77605000D01*
X162393334Y-77652619D01*
X163250477Y-77890714D02*
X163250477Y-78557381D01*
X163012381Y-77509762D02*
X162774286Y-78224048D01*
X163393334Y-78224048D01*
X158710334Y-106275143D02*
X158662715Y-106322762D01*
X158519858Y-106370381D01*
X158424620Y-106370381D01*
X158281762Y-106322762D01*
X158186524Y-106227524D01*
X158138905Y-106132286D01*
X158091286Y-105941810D01*
X158091286Y-105798952D01*
X158138905Y-105608476D01*
X158186524Y-105513238D01*
X158281762Y-105418000D01*
X158424620Y-105370381D01*
X158519858Y-105370381D01*
X158662715Y-105418000D01*
X158710334Y-105465619D01*
X159615096Y-105370381D02*
X159138905Y-105370381D01*
X159091286Y-105846571D01*
X159138905Y-105798952D01*
X159234143Y-105751333D01*
X159472239Y-105751333D01*
X159567477Y-105798952D01*
X159615096Y-105846571D01*
X159662715Y-105941810D01*
X159662715Y-106179905D01*
X159615096Y-106275143D01*
X159567477Y-106322762D01*
X159472239Y-106370381D01*
X159234143Y-106370381D01*
X159138905Y-106322762D01*
X159091286Y-106275143D01*
X172045334Y-105640143D02*
X171997715Y-105687762D01*
X171854858Y-105735381D01*
X171759620Y-105735381D01*
X171616762Y-105687762D01*
X171521524Y-105592524D01*
X171473905Y-105497286D01*
X171426286Y-105306810D01*
X171426286Y-105163952D01*
X171473905Y-104973476D01*
X171521524Y-104878238D01*
X171616762Y-104783000D01*
X171759620Y-104735381D01*
X171854858Y-104735381D01*
X171997715Y-104783000D01*
X172045334Y-104830619D01*
X172902477Y-104735381D02*
X172712000Y-104735381D01*
X172616762Y-104783000D01*
X172569143Y-104830619D01*
X172473905Y-104973476D01*
X172426286Y-105163952D01*
X172426286Y-105544905D01*
X172473905Y-105640143D01*
X172521524Y-105687762D01*
X172616762Y-105735381D01*
X172807239Y-105735381D01*
X172902477Y-105687762D01*
X172950096Y-105640143D01*
X172997715Y-105544905D01*
X172997715Y-105306810D01*
X172950096Y-105211571D01*
X172902477Y-105163952D01*
X172807239Y-105116333D01*
X172616762Y-105116333D01*
X172521524Y-105163952D01*
X172473905Y-105211571D01*
X172426286Y-105306810D01*
X189304705Y-66949581D02*
X189304705Y-65949581D01*
X189542800Y-65949581D01*
X189685658Y-65997200D01*
X189780896Y-66092438D01*
X189828515Y-66187676D01*
X189876134Y-66378152D01*
X189876134Y-66521010D01*
X189828515Y-66711486D01*
X189780896Y-66806724D01*
X189685658Y-66901962D01*
X189542800Y-66949581D01*
X189304705Y-66949581D01*
X190828515Y-66949581D02*
X190257086Y-66949581D01*
X190542800Y-66949581D02*
X190542800Y-65949581D01*
X190447562Y-66092438D01*
X190352324Y-66187676D01*
X190257086Y-66235295D01*
X138858667Y-59015381D02*
X138858667Y-59729667D01*
X138811047Y-59872524D01*
X138715809Y-59967762D01*
X138572952Y-60015381D01*
X138477714Y-60015381D01*
X139287238Y-59110619D02*
X139334857Y-59063000D01*
X139430095Y-59015381D01*
X139668191Y-59015381D01*
X139763429Y-59063000D01*
X139811048Y-59110619D01*
X139858667Y-59205857D01*
X139858667Y-59301095D01*
X139811048Y-59443952D01*
X139239619Y-60015381D01*
X139858667Y-60015381D01*
X168870334Y-82870381D02*
X168537000Y-82394190D01*
X168298905Y-82870381D02*
X168298905Y-81870381D01*
X168679858Y-81870381D01*
X168775096Y-81918000D01*
X168822715Y-81965619D01*
X168870334Y-82060857D01*
X168870334Y-82203714D01*
X168822715Y-82298952D01*
X168775096Y-82346571D01*
X168679858Y-82394190D01*
X168298905Y-82394190D01*
X169822715Y-82870381D02*
X169251286Y-82870381D01*
X169537000Y-82870381D02*
X169537000Y-81870381D01*
X169441762Y-82013238D01*
X169346524Y-82108476D01*
X169251286Y-82156095D01*
X163155334Y-86685381D02*
X162822000Y-86209190D01*
X162583905Y-86685381D02*
X162583905Y-85685381D01*
X162964858Y-85685381D01*
X163060096Y-85733000D01*
X163107715Y-85780619D01*
X163155334Y-85875857D01*
X163155334Y-86018714D01*
X163107715Y-86113952D01*
X163060096Y-86161571D01*
X162964858Y-86209190D01*
X162583905Y-86209190D01*
X163536286Y-85780619D02*
X163583905Y-85733000D01*
X163679143Y-85685381D01*
X163917239Y-85685381D01*
X164012477Y-85733000D01*
X164060096Y-85780619D01*
X164107715Y-85875857D01*
X164107715Y-85971095D01*
X164060096Y-86113952D01*
X163488667Y-86685381D01*
X164107715Y-86685381D01*
X185833334Y-66952381D02*
X185500000Y-66476190D01*
X185261905Y-66952381D02*
X185261905Y-65952381D01*
X185642858Y-65952381D01*
X185738096Y-66000000D01*
X185785715Y-66047619D01*
X185833334Y-66142857D01*
X185833334Y-66285714D01*
X185785715Y-66380952D01*
X185738096Y-66428571D01*
X185642858Y-66476190D01*
X185261905Y-66476190D01*
X186166667Y-65952381D02*
X186785715Y-65952381D01*
X186452381Y-66333333D01*
X186595239Y-66333333D01*
X186690477Y-66380952D01*
X186738096Y-66428571D01*
X186785715Y-66523810D01*
X186785715Y-66761905D01*
X186738096Y-66857143D01*
X186690477Y-66904762D01*
X186595239Y-66952381D01*
X186309524Y-66952381D01*
X186214286Y-66904762D01*
X186166667Y-66857143D01*
X191095334Y-122995381D02*
X190762000Y-122519190D01*
X190523905Y-122995381D02*
X190523905Y-121995381D01*
X190904858Y-121995381D01*
X191000096Y-122043000D01*
X191047715Y-122090619D01*
X191095334Y-122185857D01*
X191095334Y-122328714D01*
X191047715Y-122423952D01*
X191000096Y-122471571D01*
X190904858Y-122519190D01*
X190523905Y-122519190D01*
X191952477Y-122328714D02*
X191952477Y-122995381D01*
X191714381Y-121947762D02*
X191476286Y-122662048D01*
X192095334Y-122662048D01*
X167513095Y-71207381D02*
X167513095Y-72016905D01*
X167560714Y-72112143D01*
X167608333Y-72159762D01*
X167703571Y-72207381D01*
X167894048Y-72207381D01*
X167989286Y-72159762D01*
X168036905Y-72112143D01*
X168084524Y-72016905D01*
X168084524Y-71207381D01*
X169084524Y-72207381D02*
X168513095Y-72207381D01*
X168798809Y-72207381D02*
X168798809Y-71207381D01*
X168703571Y-71350238D01*
X168608333Y-71445476D01*
X168513095Y-71493095D01*
X165385809Y-102459190D02*
X165385809Y-102935381D01*
X165052476Y-101935381D02*
X165385809Y-102459190D01*
X165719143Y-101935381D01*
X166576286Y-102935381D02*
X166004857Y-102935381D01*
X166290571Y-102935381D02*
X166290571Y-101935381D01*
X166195333Y-102078238D01*
X166100095Y-102173476D01*
X166004857Y-102221095D01*
X134757143Y-107666666D02*
X134804762Y-107714285D01*
X134852381Y-107857142D01*
X134852381Y-107952380D01*
X134804762Y-108095238D01*
X134709524Y-108190476D01*
X134614286Y-108238095D01*
X134423810Y-108285714D01*
X134280952Y-108285714D01*
X134090476Y-108238095D01*
X133995238Y-108190476D01*
X133900000Y-108095238D01*
X133852381Y-107952380D01*
X133852381Y-107857142D01*
X133900000Y-107714285D01*
X133947619Y-107666666D01*
X133852381Y-107333333D02*
X133852381Y-106666666D01*
X134852381Y-107095238D01*
X121757143Y-92266666D02*
X121804762Y-92314285D01*
X121852381Y-92457142D01*
X121852381Y-92552380D01*
X121804762Y-92695238D01*
X121709524Y-92790476D01*
X121614286Y-92838095D01*
X121423810Y-92885714D01*
X121280952Y-92885714D01*
X121090476Y-92838095D01*
X120995238Y-92790476D01*
X120900000Y-92695238D01*
X120852381Y-92552380D01*
X120852381Y-92457142D01*
X120900000Y-92314285D01*
X120947619Y-92266666D01*
X121852381Y-91790476D02*
X121852381Y-91600000D01*
X121804762Y-91504761D01*
X121757143Y-91457142D01*
X121614286Y-91361904D01*
X121423810Y-91314285D01*
X121042857Y-91314285D01*
X120947619Y-91361904D01*
X120900000Y-91409523D01*
X120852381Y-91504761D01*
X120852381Y-91695238D01*
X120900000Y-91790476D01*
X120947619Y-91838095D01*
X121042857Y-91885714D01*
X121280952Y-91885714D01*
X121376190Y-91838095D01*
X121423810Y-91790476D01*
X121471429Y-91695238D01*
X121471429Y-91504761D01*
X121423810Y-91409523D01*
X121376190Y-91361904D01*
X121280952Y-91314285D01*
X189261905Y-64080781D02*
X189261905Y-63080781D01*
X189500000Y-63080781D01*
X189642858Y-63128400D01*
X189738096Y-63223638D01*
X189785715Y-63318876D01*
X189833334Y-63509352D01*
X189833334Y-63652210D01*
X189785715Y-63842686D01*
X189738096Y-63937924D01*
X189642858Y-64033162D01*
X189500000Y-64080781D01*
X189261905Y-64080781D01*
X190214286Y-63176019D02*
X190261905Y-63128400D01*
X190357143Y-63080781D01*
X190595239Y-63080781D01*
X190690477Y-63128400D01*
X190738096Y-63176019D01*
X190785715Y-63271257D01*
X190785715Y-63366495D01*
X190738096Y-63509352D01*
X190166667Y-64080781D01*
X190785715Y-64080781D01*
X189338105Y-61156981D02*
X189338105Y-60156981D01*
X189576200Y-60156981D01*
X189719058Y-60204600D01*
X189814296Y-60299838D01*
X189861915Y-60395076D01*
X189909534Y-60585552D01*
X189909534Y-60728410D01*
X189861915Y-60918886D01*
X189814296Y-61014124D01*
X189719058Y-61109362D01*
X189576200Y-61156981D01*
X189338105Y-61156981D01*
X190242867Y-60156981D02*
X190861915Y-60156981D01*
X190528581Y-60537933D01*
X190671439Y-60537933D01*
X190766677Y-60585552D01*
X190814296Y-60633171D01*
X190861915Y-60728410D01*
X190861915Y-60966505D01*
X190814296Y-61061743D01*
X190766677Y-61109362D01*
X190671439Y-61156981D01*
X190385724Y-61156981D01*
X190290486Y-61109362D01*
X190242867Y-61061743D01*
X189361905Y-58152381D02*
X189361905Y-57152381D01*
X189600000Y-57152381D01*
X189742858Y-57200000D01*
X189838096Y-57295238D01*
X189885715Y-57390476D01*
X189933334Y-57580952D01*
X189933334Y-57723810D01*
X189885715Y-57914286D01*
X189838096Y-58009524D01*
X189742858Y-58104762D01*
X189600000Y-58152381D01*
X189361905Y-58152381D01*
X190790477Y-57485714D02*
X190790477Y-58152381D01*
X190552381Y-57104762D02*
X190314286Y-57819048D01*
X190933334Y-57819048D01*
X128005010Y-86170381D02*
X128005010Y-85170381D01*
X129052629Y-86075143D02*
X129005010Y-86122762D01*
X128862153Y-86170381D01*
X128766915Y-86170381D01*
X128624057Y-86122762D01*
X128528819Y-86027524D01*
X128481200Y-85932286D01*
X128433581Y-85741810D01*
X128433581Y-85598952D01*
X128481200Y-85408476D01*
X128528819Y-85313238D01*
X128624057Y-85218000D01*
X128766915Y-85170381D01*
X128862153Y-85170381D01*
X129005010Y-85218000D01*
X129052629Y-85265619D01*
X130005010Y-86170381D02*
X129433581Y-86170381D01*
X129719295Y-86170381D02*
X129719295Y-85170381D01*
X129624057Y-85313238D01*
X129528819Y-85408476D01*
X129433581Y-85456095D01*
X186083334Y-64002381D02*
X185750000Y-63526190D01*
X185511905Y-64002381D02*
X185511905Y-63002381D01*
X185892858Y-63002381D01*
X185988096Y-63050000D01*
X186035715Y-63097619D01*
X186083334Y-63192857D01*
X186083334Y-63335714D01*
X186035715Y-63430952D01*
X185988096Y-63478571D01*
X185892858Y-63526190D01*
X185511905Y-63526190D01*
X186940477Y-63002381D02*
X186750000Y-63002381D01*
X186654762Y-63050000D01*
X186607143Y-63097619D01*
X186511905Y-63240476D01*
X186464286Y-63430952D01*
X186464286Y-63811905D01*
X186511905Y-63907143D01*
X186559524Y-63954762D01*
X186654762Y-64002381D01*
X186845239Y-64002381D01*
X186940477Y-63954762D01*
X186988096Y-63907143D01*
X187035715Y-63811905D01*
X187035715Y-63573810D01*
X186988096Y-63478571D01*
X186940477Y-63430952D01*
X186845239Y-63383333D01*
X186654762Y-63383333D01*
X186559524Y-63430952D01*
X186511905Y-63478571D01*
X186464286Y-63573810D01*
X186083334Y-61002381D02*
X185750000Y-60526190D01*
X185511905Y-61002381D02*
X185511905Y-60002381D01*
X185892858Y-60002381D01*
X185988096Y-60050000D01*
X186035715Y-60097619D01*
X186083334Y-60192857D01*
X186083334Y-60335714D01*
X186035715Y-60430952D01*
X185988096Y-60478571D01*
X185892858Y-60526190D01*
X185511905Y-60526190D01*
X186416667Y-60002381D02*
X187083334Y-60002381D01*
X186654762Y-61002381D01*
X186083334Y-58002381D02*
X185750000Y-57526190D01*
X185511905Y-58002381D02*
X185511905Y-57002381D01*
X185892858Y-57002381D01*
X185988096Y-57050000D01*
X186035715Y-57097619D01*
X186083334Y-57192857D01*
X186083334Y-57335714D01*
X186035715Y-57430952D01*
X185988096Y-57478571D01*
X185892858Y-57526190D01*
X185511905Y-57526190D01*
X186654762Y-57430952D02*
X186559524Y-57383333D01*
X186511905Y-57335714D01*
X186464286Y-57240476D01*
X186464286Y-57192857D01*
X186511905Y-57097619D01*
X186559524Y-57050000D01*
X186654762Y-57002381D01*
X186845239Y-57002381D01*
X186940477Y-57050000D01*
X186988096Y-57097619D01*
X187035715Y-57192857D01*
X187035715Y-57240476D01*
X186988096Y-57335714D01*
X186940477Y-57383333D01*
X186845239Y-57430952D01*
X186654762Y-57430952D01*
X186559524Y-57478571D01*
X186511905Y-57526190D01*
X186464286Y-57621429D01*
X186464286Y-57811905D01*
X186511905Y-57907143D01*
X186559524Y-57954762D01*
X186654762Y-58002381D01*
X186845239Y-58002381D01*
X186940477Y-57954762D01*
X186988096Y-57907143D01*
X187035715Y-57811905D01*
X187035715Y-57621429D01*
X186988096Y-57526190D01*
X186940477Y-57478571D01*
X186845239Y-57430952D01*
X128649495Y-106243181D02*
X128649495Y-107052705D01*
X128697114Y-107147943D01*
X128744733Y-107195562D01*
X128839971Y-107243181D01*
X129030448Y-107243181D01*
X129125686Y-107195562D01*
X129173305Y-107147943D01*
X129220924Y-107052705D01*
X129220924Y-106243181D01*
X129601876Y-106243181D02*
X130220924Y-106243181D01*
X129887590Y-106624133D01*
X130030448Y-106624133D01*
X130125686Y-106671752D01*
X130173305Y-106719371D01*
X130220924Y-106814610D01*
X130220924Y-107052705D01*
X130173305Y-107147943D01*
X130125686Y-107195562D01*
X130030448Y-107243181D01*
X129744733Y-107243181D01*
X129649495Y-107195562D01*
X129601876Y-107147943D01*
M02*
