G04 #@! TF.FileFunction,Copper,L4,Bot,Signal*
%FSLAX46Y46*%
G04 Gerber Fmt 4.6, Leading zero omitted, Abs format (unit mm)*
G04 Created by KiCad (PCBNEW 4.0.6) date Monday, August 21, 2017 'PMt' 07:13:58 PM*
%MOMM*%
%LPD*%
G01*
G04 APERTURE LIST*
%ADD10C,0.100000*%
%ADD11R,1.700000X1.700000*%
%ADD12O,1.700000X1.700000*%
%ADD13R,1.727200X1.727200*%
%ADD14O,1.727200X1.727200*%
%ADD15C,4.400000*%
%ADD16C,0.700000*%
%ADD17C,0.250000*%
G04 APERTURE END LIST*
D10*
D11*
X155702000Y-123698000D03*
D12*
X155702000Y-126238000D03*
X158242000Y-123698000D03*
X158242000Y-126238000D03*
X160782000Y-123698000D03*
X160782000Y-126238000D03*
X163322000Y-123698000D03*
X163322000Y-126238000D03*
X165862000Y-123698000D03*
X165862000Y-126238000D03*
X168402000Y-123698000D03*
X168402000Y-126238000D03*
X170942000Y-123698000D03*
X170942000Y-126238000D03*
X173482000Y-123698000D03*
X173482000Y-126238000D03*
X176022000Y-123698000D03*
X176022000Y-126238000D03*
X178562000Y-123698000D03*
X178562000Y-126238000D03*
D11*
X155702000Y-58293000D03*
D12*
X155702000Y-60833000D03*
X158242000Y-58293000D03*
X158242000Y-60833000D03*
X160782000Y-58293000D03*
X160782000Y-60833000D03*
X163322000Y-58293000D03*
X163322000Y-60833000D03*
X165862000Y-58293000D03*
X165862000Y-60833000D03*
X168402000Y-58293000D03*
X168402000Y-60833000D03*
X170942000Y-58293000D03*
X170942000Y-60833000D03*
X173482000Y-58293000D03*
X173482000Y-60833000D03*
X176022000Y-58293000D03*
X176022000Y-60833000D03*
X178562000Y-58293000D03*
X178562000Y-60833000D03*
D13*
X189357000Y-96393000D03*
D14*
X186817000Y-96393000D03*
X189357000Y-93853000D03*
X186817000Y-93853000D03*
X189357000Y-91313000D03*
X186817000Y-91313000D03*
D11*
X186817000Y-117983000D03*
D12*
X189357000Y-117983000D03*
X186817000Y-115443000D03*
X189357000Y-115443000D03*
X186817000Y-112903000D03*
X189357000Y-112903000D03*
X186817000Y-110363000D03*
X189357000Y-110363000D03*
D11*
X118872000Y-58293000D03*
D12*
X118872000Y-60833000D03*
X121412000Y-58293000D03*
X121412000Y-60833000D03*
X123952000Y-58293000D03*
X123952000Y-60833000D03*
X126492000Y-58293000D03*
X126492000Y-60833000D03*
X129032000Y-58293000D03*
X129032000Y-60833000D03*
X131572000Y-58293000D03*
X131572000Y-60833000D03*
X134112000Y-58293000D03*
X134112000Y-60833000D03*
X136652000Y-58293000D03*
X136652000Y-60833000D03*
D15*
X192000000Y-54300000D03*
X192000000Y-129700000D03*
X106000000Y-129700000D03*
X106000000Y-54300000D03*
D16*
X192300000Y-58900000D03*
X192600000Y-62000000D03*
X192500000Y-65000000D03*
X137400000Y-106400000D03*
X126500000Y-113300000D03*
X122000000Y-88700000D03*
X156900000Y-54800000D03*
X134800000Y-100600000D03*
X123300000Y-100900000D03*
X118600000Y-93300000D03*
X169672000Y-72263000D03*
X162687000Y-75438000D03*
X159512000Y-95758000D03*
X173482000Y-95013000D03*
X177892000Y-95858000D03*
X177292000Y-93853000D03*
X192532000Y-67818000D03*
X189992000Y-77343000D03*
X160147000Y-104648000D03*
X171577000Y-106553000D03*
X120300000Y-89480000D03*
X124600000Y-110900000D03*
X137500000Y-108200000D03*
X153000000Y-57200000D03*
X161417000Y-88138000D03*
X162687000Y-76708000D03*
X159512000Y-94488000D03*
X175987000Y-97128000D03*
X175387000Y-92583000D03*
X183642000Y-67818000D03*
X174382003Y-89408000D03*
X174117000Y-92583000D03*
X171577000Y-100203000D03*
X168100000Y-96900000D03*
X169037000Y-95123000D03*
X170307000Y-97028000D03*
X192000000Y-116600000D03*
X168500000Y-91700000D03*
X184100000Y-59000000D03*
X181200000Y-87900000D03*
X183600000Y-91000000D03*
X169074278Y-92625652D03*
X181000000Y-92800000D03*
X181200000Y-89100000D03*
X184100000Y-62200000D03*
X168779591Y-93476042D03*
X184912000Y-110363000D03*
X170942000Y-102743000D03*
X165186999Y-79248000D03*
X165227000Y-95123000D03*
X136600000Y-102200000D03*
X136900000Y-84100000D03*
X136800000Y-88500000D03*
X122400000Y-63100000D03*
X167132000Y-95758000D03*
X165862000Y-72898000D03*
X165862000Y-93853000D03*
X141900000Y-91400000D03*
X142000000Y-84200000D03*
X125000000Y-63100000D03*
X166497000Y-97028000D03*
X138240000Y-87520000D03*
X139300000Y-107800000D03*
X139600000Y-90100000D03*
X139600000Y-84200000D03*
X128100000Y-62800000D03*
X168500000Y-88100000D03*
X176023397Y-73534397D03*
X175387000Y-72898000D03*
X173482000Y-89408000D03*
X173482000Y-72898000D03*
X163800000Y-86700000D03*
X163800000Y-82900000D03*
X132600000Y-62600000D03*
X139300000Y-66400000D03*
X146700000Y-84200000D03*
X146700000Y-91300000D03*
D17*
X192600000Y-62000000D02*
X192500000Y-62000000D01*
X126500000Y-113300000D02*
X126500000Y-113400000D01*
X155702000Y-58293000D02*
X154093000Y-58293000D01*
X154093000Y-58293000D02*
X153000000Y-57200000D01*
X174382003Y-71258003D02*
X169577001Y-66453001D01*
X169577001Y-66453001D02*
X169577001Y-59468001D01*
X169577001Y-59468001D02*
X169251999Y-59142999D01*
X169251999Y-59142999D02*
X168402000Y-58293000D01*
X174382003Y-89408000D02*
X174382003Y-71258003D01*
X174382003Y-89408000D02*
X174382003Y-88913026D01*
X171577000Y-100203000D02*
X172627078Y-99452922D01*
X172627078Y-99452922D02*
X172627078Y-94372922D01*
X172627078Y-94372922D02*
X174117000Y-92583000D01*
X156972000Y-122428000D02*
X156972000Y-124968000D01*
X156972000Y-124968000D02*
X155702000Y-126238000D01*
X157607000Y-121793000D02*
X156972000Y-122428000D01*
X161337000Y-121793000D02*
X157607000Y-121793000D01*
X168362000Y-114768000D02*
X161337000Y-121793000D01*
X168100000Y-96900000D02*
X168362000Y-114768000D01*
X169037000Y-95123000D02*
X169037000Y-114808000D01*
X161957001Y-121887999D02*
X161957001Y-125062999D01*
X169037000Y-114808000D02*
X161957001Y-121887999D01*
X161957001Y-125062999D02*
X161631999Y-125388001D01*
X161631999Y-125388001D02*
X160782000Y-126238000D01*
X169672000Y-97663000D02*
X169672000Y-120688998D01*
X169672000Y-120688998D02*
X167037001Y-123323997D01*
X167037001Y-123323997D02*
X167037001Y-125062999D01*
X167037001Y-125062999D02*
X166711999Y-125388001D01*
X166711999Y-125388001D02*
X165862000Y-126238000D01*
X170307000Y-97028000D02*
X169672000Y-97663000D01*
X186014592Y-122428000D02*
X177292000Y-122428000D01*
X177292000Y-122428000D02*
X176022000Y-123698000D01*
X188087000Y-120355592D02*
X186014592Y-122428000D01*
X189357000Y-112903000D02*
X189357000Y-113703998D01*
X189357000Y-113703998D02*
X188087000Y-114973998D01*
X188087000Y-114973998D02*
X188087000Y-120355592D01*
X189357000Y-110363000D02*
X190982011Y-111988011D01*
X190982011Y-111988011D02*
X190982011Y-118733401D01*
X190982011Y-118733401D02*
X184652413Y-125062999D01*
X184652413Y-125062999D02*
X177197001Y-125062999D01*
X177197001Y-125062999D02*
X176871999Y-125388001D01*
X176871999Y-125388001D02*
X176022000Y-126238000D01*
X189357000Y-115443000D02*
X190532001Y-116618001D01*
X190532001Y-116618001D02*
X190532001Y-118547001D01*
X190532001Y-118547001D02*
X185381002Y-123698000D01*
X185381002Y-123698000D02*
X179764081Y-123698000D01*
X179764081Y-123698000D02*
X178562000Y-123698000D01*
X192000000Y-116600000D02*
X191657011Y-93613011D01*
X191657011Y-93613011D02*
X189357000Y-91313000D01*
X170305602Y-90124399D02*
X188168399Y-90124399D01*
X168500000Y-91700000D02*
X170305602Y-90124399D01*
X188168399Y-90124399D02*
X189357000Y-91313000D01*
X182800000Y-91400000D02*
X182623208Y-91400000D01*
X184100000Y-59000000D02*
X181200000Y-61900000D01*
X181200000Y-61900000D02*
X181200000Y-87900000D01*
X183600000Y-91000000D02*
X183111604Y-91488396D01*
X183111604Y-91488396D02*
X182888396Y-91488396D01*
X182888396Y-91488396D02*
X182800000Y-91400000D01*
X182600000Y-91400000D02*
X182600000Y-91376792D01*
X182623208Y-91400000D02*
X182600000Y-91400000D01*
X186817000Y-115443000D02*
X178357000Y-115443000D01*
X173482000Y-120318000D02*
X173482000Y-123698000D01*
X178357000Y-115443000D02*
X173482000Y-120318000D01*
X182471210Y-91248002D02*
X170451928Y-91248002D01*
X170451928Y-91248002D02*
X170371998Y-91327932D01*
X169074278Y-92625652D02*
X170371998Y-91327932D01*
X182471210Y-91248002D02*
X182600000Y-91376792D01*
X182600000Y-91376792D02*
X183887607Y-92664399D01*
X183887607Y-92664399D02*
X189927529Y-92664399D01*
X190470600Y-96393000D02*
X189357000Y-96393000D01*
X189927529Y-92664399D02*
X190545601Y-93282471D01*
X190545601Y-93282471D02*
X190545601Y-96317999D01*
X190545601Y-96317999D02*
X190470600Y-96393000D01*
X186817000Y-115443000D02*
X188087000Y-114173000D01*
X188087000Y-114173000D02*
X188087000Y-109893998D01*
X188087000Y-109893998D02*
X189357000Y-108623998D01*
X189357000Y-108623998D02*
X189357000Y-97506600D01*
X189357000Y-97506600D02*
X189357000Y-96393000D01*
X184900000Y-97200000D02*
X184900000Y-95770000D01*
X184900000Y-95770000D02*
X185628399Y-95041601D01*
X185400000Y-108100000D02*
X185400000Y-97700000D01*
X185057499Y-111442501D02*
X185600000Y-110900000D01*
X185600000Y-110900000D02*
X185600000Y-108300000D01*
X185600000Y-108300000D02*
X185400000Y-108100000D01*
X184900000Y-111442501D02*
X185057499Y-111442501D01*
X185400000Y-97700000D02*
X184900000Y-97200000D01*
X181543399Y-92256601D02*
X182843399Y-92256601D01*
X181000000Y-92800000D02*
X181543399Y-92256601D01*
X182600000Y-87700000D02*
X181200000Y-89100000D01*
X182600000Y-63700000D02*
X182600000Y-87700000D01*
X184100000Y-62200000D02*
X182600000Y-63700000D01*
X186157499Y-111442501D02*
X184900000Y-111442501D01*
X184900000Y-111442501D02*
X177157499Y-111442501D01*
X170942000Y-117658000D02*
X170942000Y-123698000D01*
X177157499Y-111442501D02*
X170942000Y-117658000D01*
X168779591Y-93476042D02*
X169413958Y-93476042D01*
X169413958Y-93476042D02*
X170266999Y-92623001D01*
X170266999Y-92623001D02*
X170901999Y-92623001D01*
X170901999Y-92623001D02*
X171617001Y-91907999D01*
X171617001Y-91907999D02*
X182494797Y-91907999D01*
X182494797Y-91907999D02*
X182843399Y-92256601D01*
X182843399Y-92256601D02*
X185628399Y-95041601D01*
X186817000Y-112903000D02*
X186817000Y-112102002D01*
X185953401Y-94716599D02*
X186817000Y-93853000D01*
X186817000Y-112102002D02*
X186157499Y-111442501D01*
X185628399Y-95041601D02*
X185953401Y-94716599D01*
X170942000Y-102743000D02*
X177292000Y-102743000D01*
X177292000Y-102743000D02*
X184912000Y-110363000D01*
X186817000Y-110363000D02*
X188087000Y-109093000D01*
X188087000Y-109093000D02*
X188087000Y-95123000D01*
X188087000Y-95123000D02*
X188493401Y-94716599D01*
X188493401Y-94716599D02*
X189357000Y-93853000D01*
X165186999Y-79248000D02*
X165186999Y-69763001D01*
X165186999Y-94177001D02*
X165186999Y-79248000D01*
X160782028Y-65358030D02*
X121021617Y-65358029D01*
X121021617Y-65358029D02*
X117246989Y-61583401D01*
X117246989Y-61583401D02*
X117246989Y-58818011D01*
X117246989Y-58818011D02*
X117772000Y-58293000D01*
X117772000Y-58293000D02*
X118872000Y-58293000D01*
X165186999Y-69763001D02*
X160782028Y-65358030D01*
X165227000Y-95123000D02*
X165227000Y-94217002D01*
X165227000Y-94217002D02*
X165186999Y-94177001D01*
X136800000Y-102000000D02*
X136800000Y-88500000D01*
X136600000Y-102200000D02*
X136800000Y-102000000D01*
X136800000Y-88500000D02*
X136900000Y-88400000D01*
X136900000Y-88400000D02*
X136900000Y-84100000D01*
X121800000Y-63800000D02*
X121800000Y-63761000D01*
X121830500Y-63830500D02*
X121800000Y-63800000D01*
X121869500Y-63830500D02*
X121830500Y-63830500D01*
X122400000Y-63300000D02*
X121869500Y-63830500D01*
X122400000Y-63100000D02*
X122400000Y-63300000D01*
X167132000Y-70359410D02*
X161230600Y-64458010D01*
X161230600Y-64458010D02*
X122497010Y-64458010D01*
X122497010Y-64458010D02*
X121800000Y-63761000D01*
X121800000Y-63761000D02*
X119721999Y-61682999D01*
X119721999Y-61682999D02*
X118872000Y-60833000D01*
X167132000Y-95758000D02*
X167132000Y-70359410D01*
X165862000Y-72898000D02*
X165862000Y-69725820D01*
X165862000Y-93853000D02*
X165862000Y-72898000D01*
X165862000Y-69725820D02*
X161044200Y-64908020D01*
X161044200Y-64908020D02*
X121208018Y-64908020D01*
X121208018Y-64908020D02*
X117696999Y-61397001D01*
X117696999Y-61397001D02*
X117696999Y-60268999D01*
X117696999Y-60268999D02*
X118497997Y-59468001D01*
X118497997Y-59468001D02*
X120236999Y-59468001D01*
X120236999Y-59468001D02*
X120562001Y-59142999D01*
X120562001Y-59142999D02*
X121412000Y-58293000D01*
X141900000Y-91400000D02*
X142000000Y-91300000D01*
X142000000Y-91300000D02*
X142000000Y-84200000D01*
X124889500Y-63210500D02*
X123789500Y-63210500D01*
X125000000Y-63100000D02*
X124889500Y-63210500D01*
X161417000Y-64008000D02*
X124587000Y-64008000D01*
X124587000Y-64008000D02*
X123789500Y-63210500D01*
X123789500Y-63210500D02*
X121412000Y-60833000D01*
X167807001Y-70398001D02*
X161417000Y-64008000D01*
X166497000Y-97028000D02*
X166991974Y-97028000D01*
X166991974Y-97028000D02*
X167807001Y-96212973D01*
X167807001Y-96212973D02*
X167807001Y-70398001D01*
X138280000Y-87480000D02*
X139600000Y-87480000D01*
X138240000Y-87520000D02*
X138280000Y-87480000D01*
X139600000Y-107500000D02*
X139600000Y-90100000D01*
X139300000Y-107800000D02*
X139600000Y-107500000D01*
X139600000Y-90100000D02*
X139600000Y-87480000D01*
X139600000Y-87480000D02*
X139600000Y-84200000D01*
X126627000Y-63373000D02*
X126492000Y-63373000D01*
X128100000Y-62800000D02*
X126627000Y-63373000D01*
X168500000Y-88100000D02*
X168482001Y-70436591D01*
X168482001Y-70436591D02*
X161418410Y-63373000D01*
X161418410Y-63373000D02*
X126492000Y-63373000D01*
X126492000Y-63373000D02*
X123952000Y-60833000D01*
X176023397Y-73534397D02*
X180147683Y-69410111D01*
X180147683Y-69410111D02*
X180187011Y-69410111D01*
X180187011Y-69410111D02*
X180187011Y-58179009D01*
X180187011Y-58179009D02*
X179126001Y-57117999D01*
X179126001Y-57117999D02*
X177197001Y-57117999D01*
X177197001Y-57117999D02*
X176871999Y-57443001D01*
X176871999Y-57443001D02*
X176022000Y-58293000D01*
X176022000Y-58293000D02*
X175107011Y-57378011D01*
X175107011Y-57378011D02*
X175107010Y-53566600D01*
X175107010Y-53566600D02*
X173033400Y-51492990D01*
X173033400Y-51492990D02*
X130752010Y-51492990D01*
X130752010Y-51492990D02*
X124801999Y-57443001D01*
X124801999Y-57443001D02*
X123952000Y-58293000D01*
X179737001Y-68587999D02*
X179697001Y-68587999D01*
X179697001Y-68587999D02*
X175387000Y-72898000D01*
X179737001Y-68587999D02*
X179737001Y-59468001D01*
X179737001Y-59468001D02*
X179411999Y-59142999D01*
X179411999Y-59142999D02*
X178562000Y-58293000D01*
X132842000Y-51943000D02*
X126492000Y-58293000D01*
X172847000Y-51943000D02*
X132842000Y-51943000D01*
X174657001Y-53753001D02*
X172847000Y-51943000D01*
X178562000Y-58293000D02*
X177386999Y-59468001D01*
X177386999Y-59468001D02*
X175457999Y-59468001D01*
X175457999Y-59468001D02*
X174657001Y-58667003D01*
X174657001Y-58667003D02*
X174657001Y-53753001D01*
X173482000Y-89408000D02*
X173482000Y-72898000D01*
X163800000Y-86700000D02*
X163800000Y-82900000D01*
X146700000Y-84200000D02*
X146700000Y-73800000D01*
X129100000Y-62700000D02*
X127233000Y-60833000D01*
X132500000Y-62700000D02*
X129100000Y-62700000D01*
X132600000Y-62600000D02*
X132500000Y-62700000D01*
X146700000Y-73800000D02*
X139300000Y-66400000D01*
X127233000Y-60833000D02*
X126492000Y-60833000D01*
X146700000Y-91300000D02*
X146700000Y-84200000D01*
M02*
