M48
;DRILL file {KiCad 4.0.6} date Monday, August 21, 2017 'PMt' 07:14:02 PM
;FORMAT={2:4/ absolute / inch / suppress leading zeros}
FMAT,2
INCH,TZ
T1C0.016
T2C0.039
T3C0.040
T4C0.134
%
G90
G05
M72
T1
X46693Y-36732
X47362Y-35228
X48031Y-34921
X48189Y-24843
X48543Y-39724
X49055Y-43661
X49213Y-24843
X49803Y-44606
X50433Y-24724
X52205Y-24646
X53071Y-39606
X53780Y-40236
X53858Y-34843
X53898Y-33110
X54094Y-41890
X54134Y-42598
X54425Y-34457
X54843Y-26142
X54843Y-42441
X54961Y-33150
X54961Y-35472
X55866Y-35984
X55906Y-33150
X57756Y-33150
X57756Y-35945
X60236Y-22520
X61772Y-21575
X62800Y-37200
X62800Y-37700
X63050Y-41200
X63550Y-34700
X64050Y-29700
X64050Y-30200
X64488Y-32638
X64488Y-34134
X65034Y-31200
X65050Y-37450
X65300Y-28700
X65300Y-36950
X65550Y-38200
X65800Y-37700
X66181Y-38150
X66339Y-34685
X66339Y-36102
X66449Y-36802
X66550Y-37450
X66565Y-36467
X66800Y-28450
X67050Y-38200
X67300Y-40450
X67550Y-39450
X67550Y-41950
X68300Y-28700
X68300Y-35200
X68300Y-37407
X68550Y-36450
X68654Y-35200
X69050Y-28700
X69050Y-36450
X69286Y-38239
X69301Y-28951
X69800Y-36950
X70036Y-37739
X71260Y-36535
X71339Y-34606
X71339Y-35079
X72283Y-35827
X72300Y-26700
X72480Y-23228
X72480Y-24488
X72800Y-43450
X74800Y-30450
X75591Y-45906
X75709Y-23189
X75787Y-25591
X75800Y-26700
X75827Y-24409
T2
X46800Y-22950
X46800Y-23950
X47800Y-22950
X47800Y-23950
X48800Y-22950
X48800Y-23950
X49800Y-22950
X49800Y-23950
X50800Y-22950
X50800Y-23950
X51800Y-22950
X51800Y-23950
X52800Y-22950
X52800Y-23950
X53800Y-22950
X53800Y-23950
X61300Y-22950
X61300Y-23950
X61300Y-48700
X61300Y-49700
X62300Y-22950
X62300Y-23950
X62300Y-48700
X62300Y-49700
X63300Y-22950
X63300Y-23950
X63300Y-48700
X63300Y-49700
X64300Y-22950
X64300Y-23950
X64300Y-48700
X64300Y-49700
X65300Y-22950
X65300Y-23950
X65300Y-48700
X65300Y-49700
X66300Y-22950
X66300Y-23950
X66300Y-48700
X66300Y-49700
X67300Y-22950
X67300Y-23950
X67300Y-48700
X67300Y-49700
X68300Y-22950
X68300Y-23950
X68300Y-48700
X68300Y-49700
X69300Y-22950
X69300Y-23950
X69300Y-48700
X69300Y-49700
X70300Y-22950
X70300Y-23950
X70300Y-48700
X70300Y-49700
X73550Y-43450
X73550Y-44450
X73550Y-45450
X73550Y-46450
X74550Y-43450
X74550Y-44450
X74550Y-45450
X74550Y-46450
T3
X73550Y-35950
X73550Y-36950
X73550Y-37950
X74550Y-35950
X74550Y-36950
X74550Y-37950
T4
X41732Y-21378
X41732Y-51063
X75591Y-21378
X75591Y-51063
T0
M30
